<svg width="50" height="50" viewBox="0 0 50 50" fill="none" xmlns="http://www.w3.org/2000/svg">
<rect width="50" height="50" rx="10" fill="url(#paint0_linear_57_7)"/>
<mask id="path-2-outside-1_57_7" maskUnits="userSpaceOnUse" x="4" y="6" width="22" height="29" fill="black">
<rect fill="white" x="4" y="6" width="22" height="29"/>
<path d="M24.916 10.4668C24.9277 12.2832 24.541 14.3223 23.7559 16.584C23.5449 17.1934 23.2578 17.498 22.8945 17.498C22.918 17.498 22.5957 17.4629 21.9277 17.3926C21.3652 17.3223 21.084 17.1465 21.084 16.8652C21.084 16.7363 21.1836 16.6074 21.3828 16.4785C21.6523 16.0215 21.9336 15.1719 22.2266 13.9297C22.5547 12.5234 22.6953 11.3691 22.6484 10.4668C22.6016 9.78711 22.2559 9.44727 21.6113 9.44727C21.248 9.44727 20.8496 9.61133 20.416 9.93945C18.9746 11.0176 17.5566 12.9863 16.1621 15.8457C14.8145 18.6113 13.2324 22.748 11.416 28.2559C11.1465 29.0645 10.7129 29.5566 10.1152 29.7324C13.209 29.7324 16.4844 29.9141 19.9414 30.2773C20.4688 30.3242 20.8027 30.2949 20.9434 30.1895C21.002 30.1426 21.1484 29.8672 21.3828 29.3633C21.5234 29.0586 21.6699 28.9062 21.8223 28.9062C21.9746 28.9062 22.1152 29.0352 22.2441 29.293C22.748 30.2656 23 30.9512 23 31.3496C23 31.6777 22.7715 32.0527 22.3145 32.4746C21.8105 32.9316 21.4297 33.1602 21.1719 33.1602C20.9727 33.1602 20.6562 33.0957 20.2227 32.9668C17.4805 32.2051 14.457 31.8242 11.1523 31.8242C10.25 31.8242 9.36523 31.8594 8.49805 31.9297C7.91211 31.9766 7.56641 32.041 7.46094 32.123C7.46094 32.123 7.34961 32.3105 7.12695 32.6855C6.82227 33.2012 6.45898 33.459 6.03711 33.459C5.76758 33.459 5.5918 33.3301 5.50977 33.0723C5.16992 32.0996 5 31.4785 5 31.209C5 30.3301 6.27148 29.8379 8.81445 29.7324C10.7949 22.7598 12.8984 17.2344 15.125 13.1562C17.0234 9.67578 18.6406 7.84766 19.9766 7.67188C20.3516 7.61328 21.3242 7.95898 22.8945 8.70898C23.2812 8.68555 23.5742 8.67383 23.7734 8.67383C24.3008 8.67383 24.6289 8.79102 24.7578 9.02539C24.8516 9.21289 24.9043 9.69336 24.916 10.4668Z"/>
</mask>
<path d="M24.916 10.4668C24.9277 12.2832 24.541 14.3223 23.7559 16.584C23.5449 17.1934 23.2578 17.498 22.8945 17.498C22.918 17.498 22.5957 17.4629 21.9277 17.3926C21.3652 17.3223 21.084 17.1465 21.084 16.8652C21.084 16.7363 21.1836 16.6074 21.3828 16.4785C21.6523 16.0215 21.9336 15.1719 22.2266 13.9297C22.5547 12.5234 22.6953 11.3691 22.6484 10.4668C22.6016 9.78711 22.2559 9.44727 21.6113 9.44727C21.248 9.44727 20.8496 9.61133 20.416 9.93945C18.9746 11.0176 17.5566 12.9863 16.1621 15.8457C14.8145 18.6113 13.2324 22.748 11.416 28.2559C11.1465 29.0645 10.7129 29.5566 10.1152 29.7324C13.209 29.7324 16.4844 29.9141 19.9414 30.2773C20.4688 30.3242 20.8027 30.2949 20.9434 30.1895C21.002 30.1426 21.1484 29.8672 21.3828 29.3633C21.5234 29.0586 21.6699 28.9062 21.8223 28.9062C21.9746 28.9062 22.1152 29.0352 22.2441 29.293C22.748 30.2656 23 30.9512 23 31.3496C23 31.6777 22.7715 32.0527 22.3145 32.4746C21.8105 32.9316 21.4297 33.1602 21.1719 33.1602C20.9727 33.1602 20.6562 33.0957 20.2227 32.9668C17.4805 32.2051 14.457 31.8242 11.1523 31.8242C10.25 31.8242 9.36523 31.8594 8.49805 31.9297C7.91211 31.9766 7.56641 32.041 7.46094 32.123C7.46094 32.123 7.34961 32.3105 7.12695 32.6855C6.82227 33.2012 6.45898 33.459 6.03711 33.459C5.76758 33.459 5.5918 33.3301 5.50977 33.0723C5.16992 32.0996 5 31.4785 5 31.209C5 30.3301 6.27148 29.8379 8.81445 29.7324C10.7949 22.7598 12.8984 17.2344 15.125 13.1562C17.0234 9.67578 18.6406 7.84766 19.9766 7.67188C20.3516 7.61328 21.3242 7.95898 22.8945 8.70898C23.2812 8.68555 23.5742 8.67383 23.7734 8.67383C24.3008 8.67383 24.6289 8.79102 24.7578 9.02539C24.8516 9.21289 24.9043 9.69336 24.916 10.4668Z" fill="white"/>
<path d="M24.916 10.4668L25.916 10.4603L25.9159 10.4516L24.916 10.4668ZM23.7559 16.584L22.8112 16.256L22.8109 16.2569L23.7559 16.584ZM21.9277 17.3926L21.8037 18.3849L21.8134 18.3861L21.823 18.3871L21.9277 17.3926ZM21.3828 16.4785L21.9261 17.3181L22.1243 17.1898L22.2442 16.9865L21.3828 16.4785ZM22.2266 13.9297L23.1999 14.1592L23.2004 14.1569L22.2266 13.9297ZM22.6484 10.4668L23.6471 10.4149L23.6467 10.4065L23.6461 10.398L22.6484 10.4668ZM20.416 9.93945L21.015 10.7402L21.0195 10.7369L20.416 9.93945ZM16.1621 15.8457L15.2633 15.4074L15.2632 15.4077L16.1621 15.8457ZM11.416 28.2559L12.3647 28.5721L12.3657 28.5691L11.416 28.2559ZM10.1152 29.7324L9.83307 28.7731L10.1152 30.7324V29.7324ZM19.9414 30.2773L19.8369 31.2719L19.8449 31.2727L19.8529 31.2734L19.9414 30.2773ZM20.9434 30.1895L21.5434 30.9895L21.5559 30.9801L21.5681 30.9703L20.9434 30.1895ZM21.3828 29.3633L22.2895 29.785L22.2908 29.7823L21.3828 29.3633ZM22.2441 29.293L21.3497 29.7402L21.3529 29.7466L21.3562 29.753L22.2441 29.293ZM22.3145 32.4746L22.9863 33.2154L22.9927 33.2094L22.3145 32.4746ZM20.2227 32.9668L20.5076 32.0083L20.499 32.0057L20.4903 32.0033L20.2227 32.9668ZM8.49805 31.9297L8.57779 32.9265L8.57886 32.9264L8.49805 31.9297ZM7.46094 32.123L6.847 31.3337L6.69767 31.4498L6.60108 31.6125L7.46094 32.123ZM7.12695 32.6855L6.2671 32.175L6.26603 32.1768L7.12695 32.6855ZM5.50977 33.0723L6.46269 32.7691L6.45843 32.7557L6.4538 32.7424L5.50977 33.0723ZM8.81445 29.7324L8.85589 30.7316L9.57873 30.7016L9.7764 30.0056L8.81445 29.7324ZM15.125 13.1562L16.0027 13.6355L16.0029 13.6351L15.125 13.1562ZM19.9766 7.67188L20.107 8.66333L20.119 8.66175L20.1309 8.65989L19.9766 7.67188ZM22.8945 8.70898L22.4636 9.61135L22.6969 9.7228L22.955 9.70715L22.8945 8.70898ZM24.7578 9.02539L25.6522 8.57818L25.6435 8.56065L25.634 8.54347L24.7578 9.02539ZM24.916 10.4668L23.916 10.4732C23.9268 12.1461 23.5702 14.0696 22.8112 16.256L23.7559 16.584L24.7006 16.9119C25.5118 14.5749 25.9286 12.4203 25.916 10.4603L24.916 10.4668ZM23.7559 16.584L22.8109 16.2569C22.7721 16.3688 22.7357 16.4495 22.7053 16.5054C22.6903 16.5329 22.6778 16.5524 22.6687 16.5654C22.6595 16.5785 22.6545 16.5838 22.6545 16.5837C22.6551 16.5832 22.6784 16.5588 22.7285 16.5354C22.7815 16.5105 22.8405 16.498 22.8945 16.498V17.498V18.498C23.9591 18.498 24.4694 17.5798 24.7008 16.9111L23.7559 16.584ZM22.8945 17.498V18.498C22.904 18.498 22.9384 18.4981 22.982 18.4943C23.0006 18.4926 23.0527 18.4878 23.1178 18.473C23.1496 18.4657 23.2119 18.4501 23.2862 18.4185C23.3411 18.3953 23.5134 18.3188 23.6639 18.1381C23.8645 17.8974 23.9683 17.5334 23.839 17.166C23.7434 16.8943 23.5613 16.7482 23.5054 16.7053C23.3768 16.6064 23.2536 16.564 23.2404 16.5591C23.1738 16.5347 23.1187 16.523 23.1118 16.5214C23.0801 16.5144 23.0542 16.5104 23.0493 16.5096C23.0393 16.508 23.0308 16.5068 23.0253 16.506C23.0057 16.5033 22.983 16.5005 22.9641 16.4983C22.9223 16.4934 22.8598 16.4864 22.7789 16.4776C22.6157 16.4598 22.3666 16.4333 22.0324 16.3981L21.9277 17.3926L21.823 18.3871C22.1568 18.4222 22.4028 18.4484 22.562 18.4658C22.6422 18.4745 22.6976 18.4807 22.7304 18.4846C22.749 18.4868 22.7528 18.4873 22.7489 18.4868C22.7474 18.4866 22.7421 18.4859 22.7347 18.4847C22.7324 18.4843 22.7085 18.4806 22.6779 18.4738C22.6717 18.4724 22.617 18.4608 22.5507 18.4365C22.5376 18.4317 22.4145 18.3894 22.286 18.2905C22.2301 18.2476 22.048 18.1015 21.9524 17.8298C21.8231 17.4624 21.9269 17.0984 22.1275 16.8578C22.2781 16.6771 22.4503 16.6007 22.5051 16.5774C22.5794 16.5459 22.6417 16.5302 22.6735 16.523C22.7384 16.5082 22.7903 16.5034 22.8087 16.5018C22.852 16.498 22.8858 16.498 22.8945 16.498V17.498ZM21.9277 17.3926L22.0518 16.4003C21.9496 16.3875 21.8808 16.3724 21.8386 16.3601C21.7945 16.3472 21.7969 16.3425 21.8249 16.36C21.8551 16.3789 21.9259 16.4308 21.9884 16.5323C22.055 16.6405 22.084 16.7598 22.084 16.8652H21.084H20.084C20.084 17.4172 20.3932 17.8237 20.7649 18.056C21.0868 18.2572 21.4666 18.3427 21.8037 18.3849L21.9277 17.3926ZM21.084 16.8652H22.084C22.084 17.0748 21.9993 17.2196 21.95 17.2833C21.9068 17.3392 21.882 17.3466 21.9261 17.3181L21.3828 16.4785L20.8396 15.6389C20.5879 15.8018 20.084 16.1913 20.084 16.8652H21.084ZM21.3828 16.4785L22.2442 16.9865C22.5988 16.3852 22.9071 15.4004 23.1999 14.1592L22.2266 13.9297L21.2533 13.7001C20.96 14.9434 20.7059 15.6578 20.5214 15.9705L21.3828 16.4785ZM22.2266 13.9297L23.2004 14.1569C23.5387 12.7069 23.7008 11.4497 23.6471 10.4149L22.6484 10.4668L21.6498 10.5187C21.6898 11.2885 21.5706 12.34 21.2527 13.7025L22.2266 13.9297ZM22.6484 10.4668L23.6461 10.398C23.6126 9.91275 23.4616 9.38867 23.055 8.98902C22.64 8.58101 22.1067 8.44727 21.6113 8.44727V9.44727V10.4473C21.6866 10.4473 21.7157 10.4574 21.7141 10.4568C21.7127 10.4563 21.7044 10.4533 21.6919 10.4458C21.6793 10.4381 21.6657 10.4278 21.653 10.4153C21.6255 10.3882 21.6197 10.3689 21.624 10.3801C21.6297 10.3948 21.6443 10.4417 21.6508 10.5356L22.6484 10.4668ZM21.6113 9.44727V8.44727C20.9458 8.44727 20.3377 8.74466 19.8126 9.14205L20.416 9.93945L21.0195 10.7369C21.3615 10.478 21.5503 10.4473 21.6113 10.4473V9.44727ZM20.416 9.93945L19.8171 9.13867C18.1849 10.3594 16.6817 12.499 15.2633 15.4074L16.1621 15.8457L17.0609 16.2841C18.4316 13.4736 19.7643 11.6757 21.015 10.7402L20.416 9.93945ZM16.1621 15.8457L15.2632 15.4077C13.8855 18.2348 12.2868 22.4225 10.4663 27.9427L11.416 28.2559L12.3657 28.5691C14.178 23.0736 15.7434 18.9879 17.0611 16.2838L16.1621 15.8457ZM11.416 28.2559L10.4673 27.9396C10.2598 28.5622 10.0089 28.7213 9.83307 28.7731L10.1152 29.7324L10.3974 30.6918C11.4169 30.3919 12.0332 29.5667 12.3647 28.5721L11.416 28.2559ZM10.1152 29.7324V30.7324C13.1701 30.7324 16.4104 30.9118 19.8369 31.2719L19.9414 30.2773L20.0459 29.2828C16.5583 28.9163 13.2478 28.7324 10.1152 28.7324V29.7324ZM19.9414 30.2773L19.8529 31.2734C20.1457 31.2994 20.4258 31.3085 20.6748 31.2867C20.886 31.2682 21.2407 31.2164 21.5434 30.9895L20.9434 30.1895L20.3434 29.3895C20.4372 29.3191 20.5139 29.2965 20.5285 29.2923C20.547 29.287 20.5414 29.2907 20.5 29.2944C20.415 29.3018 20.2645 29.3021 20.0299 29.2813L19.9414 30.2773ZM20.9434 30.1895L21.5681 30.9703C21.7283 30.8422 21.8266 30.6811 21.8474 30.6483C21.8929 30.5769 21.9378 30.4968 21.98 30.4174C22.0657 30.2563 22.1696 30.0428 22.2895 29.785L21.3828 29.3633L20.4761 28.9416C20.3616 29.1877 20.2751 29.3638 20.2143 29.4781C20.1833 29.5364 20.1659 29.5655 20.1601 29.5746C20.1572 29.5792 20.1638 29.5683 20.1789 29.5488C20.1868 29.5385 20.2348 29.4757 20.3187 29.4086L20.9434 30.1895ZM21.3828 29.3633L22.2908 29.7823C22.3385 29.6789 22.3547 29.6765 22.319 29.7136C22.2785 29.7557 22.1099 29.9062 21.8223 29.9062V28.9062V27.9062C21.3823 27.9062 21.0643 28.133 20.8773 28.3274C20.6951 28.5169 20.5677 28.743 20.4749 28.9442L21.3828 29.3633ZM21.8223 28.9062V29.9062C21.5895 29.9062 21.4319 29.8003 21.3663 29.7401C21.3129 29.6911 21.3148 29.6703 21.3497 29.7402L22.2441 29.293L23.1386 28.8458C22.9916 28.5518 22.602 27.9062 21.8223 27.9062V28.9062ZM22.2441 29.293L21.3562 29.753C21.5974 30.2185 21.7661 30.5924 21.8724 30.8816C21.9253 31.0254 21.9589 31.1382 21.9787 31.2233C21.9885 31.2653 21.994 31.297 21.997 31.3195C22.0001 31.3423 22 31.3516 22 31.3496H23H24C24 30.9723 23.8882 30.5687 23.7497 30.1917C23.604 29.7953 23.3948 29.3401 23.1321 28.833L22.2441 29.293ZM23 31.3496H22C22 31.278 22.0248 31.2744 21.9747 31.3566C21.9242 31.4395 21.8224 31.5679 21.6362 31.7398L22.3145 32.4746L22.9927 33.2094C23.4892 32.7511 24 32.1221 24 31.3496H23ZM22.3145 32.4746L21.6426 31.7339C21.4165 31.939 21.2494 32.0635 21.1364 32.1313C21.1098 32.1472 21.0892 32.1582 21.0741 32.1656C21.0667 32.1692 21.0611 32.1718 21.0572 32.1734C21.0532 32.1751 21.0513 32.1758 21.0514 32.1758C21.0515 32.1757 21.0539 32.1749 21.0585 32.1736C21.0631 32.1723 21.0704 32.1704 21.0801 32.1685C21.0992 32.1647 21.1305 32.1602 21.1719 32.1602V33.1602V34.1602C21.57 34.1602 21.9181 33.9947 22.1654 33.8463C22.4332 33.6856 22.7085 33.4673 22.9863 33.2153L22.3145 32.4746ZM21.1719 33.1602V32.1602C21.1738 32.1602 21.1594 32.1602 21.1245 32.1558C21.0906 32.1516 21.0446 32.1441 20.9848 32.1319C20.8641 32.1074 20.7065 32.0674 20.5076 32.0083L20.2227 32.9668L19.9377 33.9253C20.3767 34.0559 20.8149 34.1602 21.1719 34.1602V33.1602ZM20.2227 32.9668L20.4903 32.0033C17.6483 31.2138 14.5333 30.8242 11.1523 30.8242V31.8242V32.8242C14.3808 32.8242 17.3127 33.1963 19.955 33.9303L20.2227 32.9668ZM11.1523 31.8242V30.8242C10.224 30.8242 9.31227 30.8604 8.41723 30.933L8.49805 31.9297L8.57886 32.9264C9.41819 32.8584 10.276 32.8242 11.1523 32.8242V31.8242ZM8.49805 31.9297L8.4183 30.9329C8.1103 30.9575 7.83822 30.9887 7.61603 31.0301C7.5053 31.0508 7.38825 31.0773 7.27628 31.1137C7.18131 31.1445 7.00989 31.207 6.847 31.3337L7.46094 32.123L8.07488 32.9124C8.0125 32.9609 7.96017 32.9873 7.93639 32.9985C7.91032 33.0107 7.89429 33.0158 7.89389 33.0159C7.89257 33.0164 7.899 33.0143 7.91525 33.0103C7.93115 33.0065 7.95329 33.0017 7.9826 32.9962C8.10612 32.9732 8.29986 32.9487 8.57779 32.9265L8.49805 31.9297ZM7.46094 32.123C6.60108 31.6125 6.60108 31.6125 6.60108 31.6125C6.60108 31.6125 6.60108 31.6125 6.60108 31.6125C6.60108 31.6125 6.60107 31.6125 6.60107 31.6125C6.60107 31.6125 6.60107 31.6125 6.60106 31.6125C6.60106 31.6125 6.60106 31.6126 6.60105 31.6126C6.60105 31.6126 6.60104 31.6126 6.60104 31.6126C6.60103 31.6126 6.60103 31.6126 6.60102 31.6126C6.60101 31.6126 6.60101 31.6126 6.601 31.6126C6.60099 31.6127 6.60099 31.6127 6.60098 31.6127C6.60097 31.6127 6.60096 31.6127 6.60096 31.6127C6.60095 31.6127 6.60094 31.6128 6.60093 31.6128C6.60092 31.6128 6.60091 31.6128 6.6009 31.6128C6.60089 31.6128 6.60088 31.6129 6.60087 31.6129C6.60086 31.6129 6.60084 31.6129 6.60083 31.6129C6.60082 31.6129 6.60081 31.613 6.6008 31.613C6.60078 31.613 6.60077 31.613 6.60076 31.6131C6.60074 31.6131 6.60073 31.6131 6.60071 31.6131C6.6007 31.6132 6.60069 31.6132 6.60067 31.6132C6.60065 31.6132 6.60064 31.6133 6.60062 31.6133C6.60061 31.6133 6.60059 31.6133 6.60057 31.6134C6.60056 31.6134 6.60054 31.6134 6.60052 31.6135C6.6005 31.6135 6.60048 31.6135 6.60047 31.6135C6.60045 31.6136 6.60043 31.6136 6.60041 31.6136C6.60039 31.6137 6.60037 31.6137 6.60035 31.6137C6.60033 31.6138 6.60031 31.6138 6.60029 31.6138C6.60027 31.6139 6.60024 31.6139 6.60022 31.614C6.6002 31.614 6.60018 31.614 6.60015 31.6141C6.60013 31.6141 6.60011 31.6142 6.60008 31.6142C6.60006 31.6142 6.60004 31.6143 6.60001 31.6143C6.59999 31.6144 6.59996 31.6144 6.59994 31.6144C6.59991 31.6145 6.59988 31.6145 6.59986 31.6146C6.59983 31.6146 6.59981 31.6147 6.59978 31.6147C6.59975 31.6148 6.59972 31.6148 6.5997 31.6148C6.59967 31.6149 6.59964 31.6149 6.59961 31.615C6.59958 31.615 6.59955 31.6151 6.59952 31.6151C6.59949 31.6152 6.59946 31.6152 6.59943 31.6153C6.5994 31.6153 6.59937 31.6154 6.59934 31.6154C6.59931 31.6155 6.59928 31.6156 6.59924 31.6156C6.59921 31.6157 6.59918 31.6157 6.59914 31.6158C6.59911 31.6158 6.59908 31.6159 6.59904 31.6159C6.59901 31.616 6.59898 31.6161 6.59894 31.6161C6.59891 31.6162 6.59887 31.6162 6.59884 31.6163C6.5988 31.6164 6.59876 31.6164 6.59873 31.6165C6.59869 31.6165 6.59865 31.6166 6.59862 31.6167C6.59858 31.6167 6.59854 31.6168 6.5985 31.6169C6.59846 31.6169 6.59843 31.617 6.59839 31.617C6.59835 31.6171 6.59831 31.6172 6.59827 31.6172C6.59823 31.6173 6.59819 31.6174 6.59815 31.6175C6.59811 31.6175 6.59807 31.6176 6.59802 31.6177C6.59798 31.6177 6.59794 31.6178 6.5979 31.6179C6.59786 31.6179 6.59781 31.618 6.59777 31.6181C6.59773 31.6182 6.59768 31.6182 6.59764 31.6183C6.59759 31.6184 6.59755 31.6185 6.5975 31.6185C6.59746 31.6186 6.59741 31.6187 6.59737 31.6188C6.59732 31.6188 6.59728 31.6189 6.59723 31.619C6.59718 31.6191 6.59713 31.6192 6.59709 31.6192C6.59704 31.6193 6.59699 31.6194 6.59694 31.6195C6.59689 31.6196 6.59685 31.6196 6.5968 31.6197C6.59675 31.6198 6.5967 31.6199 6.59665 31.62C6.5966 31.6201 6.59655 31.6201 6.5965 31.6202C6.59645 31.6203 6.59639 31.6204 6.59634 31.6205C6.59629 31.6206 6.59624 31.6207 6.59619 31.6208C6.59613 31.6208 6.59608 31.6209 6.59603 31.621C6.59597 31.6211 6.59592 31.6212 6.59586 31.6213C6.59581 31.6214 6.59576 31.6215 6.5957 31.6216C6.59564 31.6217 6.59559 31.6218 6.59553 31.6219C6.59548 31.6219 6.59542 31.622 6.59536 31.6221C6.59531 31.6222 6.59525 31.6223 6.59519 31.6224C6.59513 31.6225 6.59508 31.6226 6.59502 31.6227C6.59496 31.6228 6.5949 31.6229 6.59484 31.623C6.59478 31.6231 6.59472 31.6232 6.59466 31.6233C6.5946 31.6234 6.59454 31.6235 6.59448 31.6236C6.59442 31.6237 6.59436 31.6238 6.59429 31.6239C6.59423 31.624 6.59417 31.6242 6.59411 31.6243C6.59404 31.6244 6.59398 31.6245 6.59392 31.6246C6.59385 31.6247 6.59379 31.6248 6.59372 31.6249C6.59366 31.625 6.59359 31.6251 6.59353 31.6252C6.59346 31.6253 6.5934 31.6255 6.59333 31.6256C6.59327 31.6257 6.5932 31.6258 6.59313 31.6259C6.59306 31.626 6.593 31.6261 6.59293 31.6262C6.59286 31.6264 6.59279 31.6265 6.59272 31.6266C6.59265 31.6267 6.59259 31.6268 6.59252 31.6269C6.59245 31.6271 6.59238 31.6272 6.59231 31.6273C6.59224 31.6274 6.59216 31.6275 6.59209 31.6276C6.59202 31.6278 6.59195 31.6279 6.59188 31.628C6.59181 31.6281 6.59173 31.6283 6.59166 31.6284C6.59159 31.6285 6.59151 31.6286 6.59144 31.6287C6.59137 31.6289 6.59129 31.629 6.59122 31.6291C6.59114 31.6293 6.59107 31.6294 6.59099 31.6295C6.59092 31.6296 6.59084 31.6298 6.59076 31.6299C6.59069 31.63 6.59061 31.6301 6.59053 31.6303C6.59046 31.6304 6.59038 31.6305 6.5903 31.6307C6.59022 31.6308 6.59014 31.6309 6.59006 31.6311C6.58998 31.6312 6.58991 31.6313 6.58983 31.6315C6.58975 31.6316 6.58967 31.6317 6.58958 31.6319C6.5895 31.632 6.58942 31.6321 6.58934 31.6323C6.58926 31.6324 6.58918 31.6326 6.5891 31.6327C6.58901 31.6328 6.58893 31.633 6.58885 31.6331C6.58876 31.6333 6.58868 31.6334 6.5886 31.6335C6.58851 31.6337 6.58843 31.6338 6.58834 31.634C6.58826 31.6341 6.58817 31.6343 6.58809 31.6344C6.588 31.6345 6.58791 31.6347 6.58783 31.6348C6.58774 31.635 6.58765 31.6351 6.58757 31.6353C6.58748 31.6354 6.58739 31.6356 6.5873 31.6357C6.58721 31.6359 6.58713 31.636 6.58704 31.6362C6.58695 31.6363 6.58686 31.6365 6.58677 31.6366C6.58668 31.6368 6.58659 31.6369 6.5865 31.6371C6.58641 31.6372 6.58631 31.6374 6.58622 31.6375C6.58613 31.6377 6.58604 31.6378 6.58595 31.638C6.58585 31.6382 6.58576 31.6383 6.58567 31.6385C6.58557 31.6386 6.58548 31.6388 6.58539 31.6389C6.58529 31.6391 6.5852 31.6393 6.5851 31.6394C6.58501 31.6396 6.58491 31.6397 6.58481 31.6399C6.58472 31.6401 6.58462 31.6402 6.58453 31.6404C6.58443 31.6406 6.58433 31.6407 6.58423 31.6409C6.58414 31.6411 6.58404 31.6412 6.58394 31.6414C6.58384 31.6415 6.58374 31.6417 6.58364 31.6419C6.58354 31.642 6.58344 31.6422 6.58334 31.6424C6.58324 31.6426 6.58314 31.6427 6.58304 31.6429C6.58294 31.6431 6.58284 31.6432 6.58274 31.6434C6.58263 31.6436 6.58253 31.6438 6.58243 31.6439C6.58233 31.6441 6.58222 31.6443 6.58212 31.6444C6.58202 31.6446 6.58191 31.6448 6.58181 31.645C6.5817 31.6451 6.5816 31.6453 6.58149 31.6455C6.58139 31.6457 6.58128 31.6459 6.58118 31.646C6.58107 31.6462 6.58096 31.6464 6.58086 31.6466C6.58075 31.6468 6.58064 31.6469 6.58053 31.6471C6.58043 31.6473 6.58032 31.6475 6.58021 31.6477C6.5801 31.6478 6.57999 31.648 6.57988 31.6482C6.57977 31.6484 6.57966 31.6486 6.57955 31.6488C6.57944 31.649 6.57933 31.6491 6.57922 31.6493C6.57911 31.6495 6.579 31.6497 6.57888 31.6499C6.57877 31.6501 6.57866 31.6503 6.57855 31.6505C6.57843 31.6507 6.57832 31.6508 6.57821 31.651C6.57809 31.6512 6.57798 31.6514 6.57786 31.6516C6.57775 31.6518 6.57763 31.652 6.57752 31.6522C6.5774 31.6524 6.57729 31.6526 6.57717 31.6528C6.57705 31.653 6.57694 31.6532 6.57682 31.6534C6.5767 31.6536 6.57658 31.6538 6.57647 31.654C6.57635 31.6542 6.57623 31.6544 6.57611 31.6546C6.57599 31.6548 6.57587 31.655 6.57575 31.6552C6.57563 31.6554 6.57551 31.6556 6.57539 31.6558C6.57527 31.656 6.57515 31.6562 6.57503 31.6564C6.57491 31.6566 6.57479 31.6568 6.57466 31.657C6.57454 31.6572 6.57442 31.6574 6.5743 31.6576C6.57417 31.6578 6.57405 31.658 6.57393 31.6582C6.5738 31.6585 6.57368 31.6587 6.57355 31.6589C6.57343 31.6591 6.5733 31.6593 6.57318 31.6595C6.57305 31.6597 6.57292 31.6599 6.5728 31.6601C6.57267 31.6604 6.57254 31.6606 6.57242 31.6608C6.57229 31.661 6.57216 31.6612 6.57203 31.6614C6.5719 31.6616 6.57178 31.6619 6.57165 31.6621C6.57152 31.6623 6.57139 31.6625 6.57126 31.6627C6.57113 31.663 6.571 31.6632 6.57087 31.6634C6.57074 31.6636 6.57061 31.6638 6.57047 31.6641C6.57034 31.6643 6.57021 31.6645 6.57008 31.6647C6.56994 31.665 6.56981 31.6652 6.56968 31.6654C6.56955 31.6656 6.56941 31.6658 6.56928 31.6661C6.56914 31.6663 6.56901 31.6665 6.56887 31.6668C6.56874 31.667 6.5686 31.6672 6.56847 31.6674C6.56833 31.6677 6.56819 31.6679 6.56806 31.6681C6.56792 31.6684 6.56778 31.6686 6.56765 31.6688C6.56751 31.6691 6.56737 31.6693 6.56723 31.6695C6.56709 31.6698 6.56696 31.67 6.56682 31.6702C6.56668 31.6705 6.56654 31.6707 6.5664 31.6709C6.56626 31.6712 6.56612 31.6714 6.56598 31.6716C6.56583 31.6719 6.56569 31.6721 6.56555 31.6724C6.56541 31.6726 6.56527 31.6728 6.56512 31.6731C6.56498 31.6733 6.56484 31.6736 6.56469 31.6738C6.56455 31.674 6.56441 31.6743 6.56426 31.6745C6.56412 31.6748 6.56397 31.675 6.56383 31.6753C6.56368 31.6755 6.56354 31.6757 6.56339 31.676C6.56325 31.6762 6.5631 31.6765 6.56295 31.6767C6.5628 31.677 6.56266 31.6772 6.56251 31.6775C6.56236 31.6777 6.56221 31.678 6.56206 31.6782C6.56192 31.6785 6.56177 31.6787 6.56162 31.679C6.56147 31.6792 6.56132 31.6795 6.56117 31.6797C6.56102 31.68 6.56087 31.6802 6.56072 31.6805C6.56056 31.6807 6.56041 31.681 6.56026 31.6813C6.56011 31.6815 6.55996 31.6818 6.5598 31.682C6.55965 31.6823 6.5595 31.6825 6.55934 31.6828C6.55919 31.6831 6.55904 31.6833 6.55888 31.6836C6.55873 31.6838 6.55857 31.6841 6.55842 31.6844C6.55826 31.6846 6.5581 31.6849 6.55795 31.6852C6.55779 31.6854 6.55764 31.6857 6.55748 31.6859C6.55732 31.6862 6.55716 31.6865 6.55701 31.6867C6.55685 31.687 6.55669 31.6873 6.55653 31.6875C6.55637 31.6878 6.55621 31.6881 6.55605 31.6883C6.55589 31.6886 6.55573 31.6889 6.55557 31.6892C6.55541 31.6894 6.55525 31.6897 6.55509 31.69C6.55493 31.6902 6.55477 31.6905 6.5546 31.6908C6.55444 31.6911 6.55428 31.6913 6.55412 31.6916C6.55395 31.6919 6.55379 31.6922 6.55363 31.6924C6.55346 31.6927 6.5533 31.693 6.55313 31.6933C6.55297 31.6935 6.5528 31.6938 6.55264 31.6941C6.55247 31.6944 6.55231 31.6947 6.55214 31.6949C6.55197 31.6952 6.55181 31.6955 6.55164 31.6958C6.55147 31.6961 6.5513 31.6963 6.55113 31.6966C6.55097 31.6969 6.5508 31.6972 6.55063 31.6975C6.55046 31.6978 6.55029 31.6981 6.55012 31.6983C6.54995 31.6986 6.54978 31.6989 6.54961 31.6992C6.54944 31.6995 6.54927 31.6998 6.5491 31.7001C6.54892 31.7004 6.54875 31.7006 6.54858 31.7009C6.54841 31.7012 6.54824 31.7015 6.54806 31.7018C6.54789 31.7021 6.54771 31.7024 6.54754 31.7027C6.54737 31.703 6.54719 31.7033 6.54702 31.7036C6.54684 31.7039 6.54667 31.7042 6.54649 31.7045C6.54632 31.7047 6.54614 31.705 6.54596 31.7053C6.54579 31.7056 6.54561 31.7059 6.54543 31.7062C6.54525 31.7065 6.54508 31.7068 6.5449 31.7071C6.54472 31.7074 6.54454 31.7077 6.54436 31.708C6.54418 31.7083 6.544 31.7086 6.54382 31.7089C6.54364 31.7093 6.54346 31.7096 6.54328 31.7099C6.5431 31.7102 6.54292 31.7105 6.54274 31.7108C6.54255 31.7111 6.54237 31.7114 6.54219 31.7117C6.54201 31.712 6.54182 31.7123 6.54164 31.7126C6.54146 31.7129 6.54127 31.7132 6.54109 31.7136C6.5409 31.7139 6.54072 31.7142 6.54053 31.7145C6.54035 31.7148 6.54016 31.7151 6.53998 31.7154C6.53979 31.7157 6.53961 31.716 6.53942 31.7164C6.53923 31.7167 6.53904 31.717 6.53886 31.7173C6.53867 31.7176 6.53848 31.7179 6.53829 31.7183C6.5381 31.7186 6.53791 31.7189 6.53773 31.7192C6.53754 31.7195 6.53735 31.7199 6.53716 31.7202C6.53697 31.7205 6.53678 31.7208 6.53658 31.7211C6.53639 31.7215 6.5362 31.7218 6.53601 31.7221C6.53582 31.7224 6.53563 31.7228 6.53543 31.7231C6.53524 31.7234 6.53505 31.7237 6.53485 31.7241C6.53466 31.7244 6.53446 31.7247 6.53427 31.725C6.53408 31.7254 6.53388 31.7257 6.53369 31.726C6.53349 31.7263 6.53329 31.7267 6.5331 31.727C6.5329 31.7273 6.53271 31.7277 6.53251 31.728C6.53231 31.7283 6.53211 31.7287 6.53192 31.729C6.53172 31.7293 6.53152 31.7297 6.53132 31.73C6.53112 31.7303 6.53092 31.7307 6.53072 31.731C6.53052 31.7313 6.53032 31.7317 6.53012 31.732C6.52992 31.7324 6.52972 31.7327 6.52952 31.733C6.52932 31.7334 6.52912 31.7337 6.52892 31.7341C6.52871 31.7344 6.52851 31.7347 6.52831 31.7351C6.5281 31.7354 6.5279 31.7358 6.5277 31.7361C6.52749 31.7364 6.52729 31.7368 6.52708 31.7371C6.52688 31.7375 6.52667 31.7378 6.52647 31.7382C6.52626 31.7385 6.52606 31.7389 6.52585 31.7392C6.52565 31.7396 6.52544 31.7399 6.52523 31.7403C6.52502 31.7406 6.52482 31.741 6.52461 31.7413C6.5244 31.7417 6.52419 31.742 6.52398 31.7424C6.52377 31.7427 6.52356 31.7431 6.52335 31.7434C6.52314 31.7438 6.52293 31.7441 6.52272 31.7445C6.52251 31.7448 6.5223 31.7452 6.52209 31.7455C6.52188 31.7459 6.52167 31.7463 6.52145 31.7466C6.52124 31.747 6.52103 31.7473 6.52082 31.7477C6.5206 31.7481 6.52039 31.7484 6.52018 31.7488C6.51996 31.7491 6.51975 31.7495 6.51953 31.7499C6.51932 31.7502 6.5191 31.7506 6.51889 31.7509C6.51867 31.7513 6.51845 31.7517 6.51824 31.752C6.51802 31.7524 6.5178 31.7528 6.51759 31.7531C6.51737 31.7535 6.51715 31.7539 6.51693 31.7542C6.51671 31.7546 6.5165 31.755 6.51628 31.7553C6.51606 31.7557 6.51584 31.7561 6.51562 31.7564C6.5154 31.7568 6.51518 31.7572 6.51496 31.7576C6.51474 31.7579 6.51451 31.7583 6.51429 31.7587C6.51407 31.7591 6.51385 31.7594 6.51363 31.7598C6.5134 31.7602 6.51318 31.7606 6.51296 31.7609C6.51273 31.7613 6.51251 31.7617 6.51229 31.7621C6.51206 31.7624 6.51184 31.7628 6.51161 31.7632C6.51139 31.7636 6.51116 31.764 6.51094 31.7643C6.51071 31.7647 6.51048 31.7651 6.51026 31.7655C6.51003 31.7659 6.5098 31.7662 6.50958 31.7666C6.50935 31.767 6.50912 31.7674 6.50889 31.7678C6.50866 31.7682 6.50843 31.7685 6.5082 31.7689C6.50798 31.7693 6.50775 31.7697 6.50752 31.7701C6.50729 31.7705 6.50705 31.7709 6.50682 31.7713C6.50659 31.7716 6.50636 31.772 6.50613 31.7724C6.5059 31.7728 6.50566 31.7732 6.50543 31.7736C6.5052 31.774 6.50497 31.7744 6.50473 31.7748C6.5045 31.7752 6.50427 31.7756 6.50403 31.776C6.5038 31.7764 6.50356 31.7768 6.50333 31.7772C6.50309 31.7775 6.50286 31.7779 6.50262 31.7783C6.50238 31.7787 6.50215 31.7791 6.50191 31.7795C6.50167 31.7799 6.50144 31.7803 6.5012 31.7807C6.50096 31.7811 6.50072 31.7815 6.50048 31.7819C6.50024 31.7823 6.5 31.7827 6.49977 31.7831C6.49953 31.7836 6.49929 31.784 6.49905 31.7844C6.49881 31.7848 6.49856 31.7852 6.49832 31.7856C6.49808 31.786 6.49784 31.7864 6.4976 31.7868C6.49736 31.7872 6.49711 31.7876 6.49687 31.788C6.49663 31.7884 6.49638 31.7888 6.49614 31.7893C6.4959 31.7897 6.49565 31.7901 6.49541 31.7905C6.49516 31.7909 6.49492 31.7913 6.49467 31.7917C6.49443 31.7921 6.49418 31.7926 6.49394 31.793C6.49369 31.7934 6.49344 31.7938 6.49319 31.7942C6.49295 31.7946 6.4927 31.795 6.49245 31.7955C6.4922 31.7959 6.49196 31.7963 6.49171 31.7967C6.49146 31.7971 6.49121 31.7976 6.49096 31.798C6.49071 31.7984 6.49046 31.7988 6.49021 31.7992C6.48996 31.7997 6.48971 31.8001 6.48946 31.8005C6.4892 31.8009 6.48895 31.8014 6.4887 31.8018C6.48845 31.8022 6.4882 31.8026 6.48794 31.8031C6.48769 31.8035 6.48744 31.8039 6.48718 31.8043C6.48693 31.8048 6.48667 31.8052 6.48642 31.8056C6.48616 31.8061 6.48591 31.8065 6.48565 31.8069C6.4854 31.8073 6.48514 31.8078 6.48488 31.8082C6.48463 31.8086 6.48437 31.8091 6.48411 31.8095C6.48386 31.8099 6.4836 31.8104 6.48334 31.8108C6.48308 31.8112 6.48282 31.8117 6.48256 31.8121C6.48231 31.8126 6.48205 31.813 6.48179 31.8134C6.48153 31.8139 6.48127 31.8143 6.481 31.8147C6.48074 31.8152 6.48048 31.8156 6.48022 31.8161C6.47996 31.8165 6.4797 31.8169 6.47944 31.8174C6.47917 31.8178 6.47891 31.8183 6.47865 31.8187C6.47838 31.8192 6.47812 31.8196 6.47786 31.82C6.47759 31.8205 6.47733 31.8209 6.47706 31.8214C6.4768 31.8218 6.47653 31.8223 6.47627 31.8227C6.476 31.8232 6.47573 31.8236 6.47547 31.8241C6.4752 31.8245 6.47493 31.825 6.47467 31.8254C6.4744 31.8259 6.47413 31.8263 6.47386 31.8268C6.47359 31.8272 6.47332 31.8277 6.47305 31.8281C6.47279 31.8286 6.47252 31.829 6.47225 31.8295C6.47198 31.83 6.47171 31.8304 6.47143 31.8309C6.47116 31.8313 6.47089 31.8318 6.47062 31.8322C6.47035 31.8327 6.47008 31.8332 6.4698 31.8336C6.46953 31.8341 6.46926 31.8345 6.46898 31.835C6.46871 31.8355 6.46844 31.8359 6.46816 31.8364C6.46789 31.8368 6.46761 31.8373 6.46734 31.8378C6.46706 31.8382 6.46679 31.8387 6.46651 31.8392C6.46624 31.8396 6.46596 31.8401 6.46568 31.8406C6.46541 31.841 6.46513 31.8415 6.46485 31.842C6.46457 31.8424 6.46429 31.8429 6.46402 31.8434C6.46374 31.8438 6.46346 31.8443 6.46318 31.8448C6.4629 31.8452 6.46262 31.8457 6.46234 31.8462C6.46206 31.8467 6.46178 31.8471 6.4615 31.8476C6.46122 31.8481 6.46093 31.8485 6.46065 31.849C6.46037 31.8495 6.46009 31.85 6.4598 31.8505C6.45952 31.8509 6.45924 31.8514 6.45895 31.8519C6.45867 31.8524 6.45839 31.8528 6.4581 31.8533C6.45782 31.8538 6.45753 31.8543 6.45725 31.8548C6.45696 31.8552 6.45668 31.8557 6.45639 31.8562C6.4561 31.8567 6.45582 31.8572 6.45553 31.8576C6.45524 31.8581 6.45496 31.8586 6.45467 31.8591C6.45438 31.8596 6.45409 31.8601 6.4538 31.8606C6.45351 31.861 6.45322 31.8615 6.45294 31.862C6.45265 31.8625 6.45236 31.863 6.45206 31.8635C6.45177 31.864 6.45148 31.8645 6.45119 31.865C6.4509 31.8654 6.45061 31.8659 6.45032 31.8664C6.45002 31.8669 6.44973 31.8674 6.44944 31.8679C6.44915 31.8684 6.44885 31.8689 6.44856 31.8694C6.44826 31.8699 6.44797 31.8704 6.44768 31.8709C6.44738 31.8714 6.44709 31.8719 6.44679 31.8724C6.44649 31.8729 6.4462 31.8734 6.4459 31.8739C6.44561 31.8744 6.44531 31.8749 6.44501 31.8754C6.44471 31.8759 6.44442 31.8764 6.44412 31.8769C6.44382 31.8774 6.44352 31.8779 6.44322 31.8784C6.44292 31.8789 6.44262 31.8794 6.44232 31.8799C6.44202 31.8804 6.44172 31.8809 6.44142 31.8814C6.44112 31.8819 6.44082 31.8824 6.44052 31.8829C6.44022 31.8834 6.43992 31.8839 6.43961 31.8845C6.43931 31.885 6.43901 31.8855 6.43871 31.886C6.4384 31.8865 6.4381 31.887 6.4378 31.8875C6.43749 31.888 6.43719 31.8885 6.43688 31.8891C6.43658 31.8896 6.43627 31.8901 6.43597 31.8906C6.43566 31.8911 6.43535 31.8916 6.43505 31.8921C6.43474 31.8927 6.43443 31.8932 6.43413 31.8937C6.43382 31.8942 6.43351 31.8947 6.4332 31.8953C6.43289 31.8958 6.43259 31.8963 6.43228 31.8968C6.43197 31.8973 6.43166 31.8979 6.43135 31.8984C6.43104 31.8989 6.43073 31.8994 6.43042 31.8999C6.43011 31.9005 6.42979 31.901 6.42948 31.9015C6.42917 31.902 6.42886 31.9026 6.42855 31.9031C6.42823 31.9036 6.42792 31.9042 6.42761 31.9047C6.42729 31.9052 6.42698 31.9057 6.42667 31.9063C6.42635 31.9068 6.42604 31.9073 6.42572 31.9079C6.42541 31.9084 6.42509 31.9089 6.42477 31.9094C6.42446 31.91 6.42414 31.9105 6.42383 31.911C6.42351 31.9116 6.42319 31.9121 6.42287 31.9126C6.42256 31.9132 6.42224 31.9137 6.42192 31.9143C6.4216 31.9148 6.42128 31.9153 6.42096 31.9159C6.42064 31.9164 6.42032 31.9169 6.42 31.9175C6.41968 31.918 6.41936 31.9186 6.41904 31.9191C6.41872 31.9196 6.4184 31.9202 6.41808 31.9207C6.41776 31.9213 6.41743 31.9218 6.41711 31.9224C6.41679 31.9229 6.41646 31.9234 6.41614 31.924C6.41582 31.9245 6.41549 31.9251 6.41517 31.9256C6.41484 31.9262 6.41452 31.9267 6.41419 31.9273C6.41387 31.9278 6.41354 31.9284 6.41322 31.9289C6.41289 31.9295 6.41256 31.93 6.41224 31.9306C6.41191 31.9311 6.41158 31.9317 6.41125 31.9322C6.41093 31.9328 6.4106 31.9333 6.41027 31.9339C6.40994 31.9344 6.40961 31.935 6.40928 31.9355C6.40895 31.9361 6.40862 31.9367 6.40829 31.9372C6.40796 31.9378 6.40763 31.9383 6.4073 31.9389C6.40697 31.9394 6.40664 31.94 6.4063 31.9406C6.40597 31.9411 6.40564 31.9417 6.40531 31.9422C6.40497 31.9428 6.40464 31.9434 6.40431 31.9439C6.40397 31.9445 6.40364 31.945 6.4033 31.9456C6.40297 31.9462 6.40263 31.9467 6.4023 31.9473C6.40196 31.9479 6.40163 31.9484 6.40129 31.949C6.40096 31.9496 6.40062 31.9501 6.40028 31.9507C6.39994 31.9513 6.39961 31.9518 6.39927 31.9524C6.39893 31.953 6.39859 31.9535 6.39825 31.9541C6.39791 31.9547 6.39757 31.9553 6.39723 31.9558C6.3969 31.9564 6.39655 31.957 6.39621 31.9575C6.39587 31.9581 6.39553 31.9587 6.39519 31.9593C6.39485 31.9598 6.39451 31.9604 6.39417 31.961C6.39382 31.9616 6.39348 31.9622 6.39314 31.9627C6.39279 31.9633 6.39245 31.9639 6.39211 31.9645C6.39176 31.965 6.39142 31.9656 6.39107 31.9662C6.39073 31.9668 6.39038 31.9674 6.39004 31.968C6.38969 31.9685 6.38935 31.9691 6.389 31.9697C6.38865 31.9703 6.38831 31.9709 6.38796 31.9715C6.38761 31.972 6.38726 31.9726 6.38692 31.9732C6.38657 31.9738 6.38622 31.9744 6.38587 31.975C6.38552 31.9756 6.38517 31.9761 6.38482 31.9767C6.38447 31.9773 6.38412 31.9779 6.38377 31.9785C6.38342 31.9791 6.38307 31.9797 6.38272 31.9803C6.38236 31.9809 6.38201 31.9815 6.38166 31.9821C6.38131 31.9827 6.38095 31.9833 6.3806 31.9838C6.38025 31.9844 6.37989 31.985 6.37954 31.9856C6.37919 31.9862 6.37883 31.9868 6.37848 31.9874C6.37812 31.988 6.37777 31.9886 6.37741 31.9892C6.37705 31.9898 6.3767 31.9904 6.37634 31.991C6.37598 31.9916 6.37563 31.9922 6.37527 31.9928C6.37491 31.9934 6.37455 31.994 6.37419 31.9946C6.37384 31.9952 6.37348 31.9958 6.37312 31.9964C6.37276 31.9971 6.3724 31.9977 6.37204 31.9983C6.37168 31.9989 6.37132 31.9995 6.37096 32.0001C6.3706 32.0007 6.37024 32.0013 6.36987 32.0019C6.36951 32.0025 6.36915 32.0031 6.36879 32.0037C6.36842 32.0044 6.36806 32.005 6.3677 32.0056C6.36733 32.0062 6.36697 32.0068 6.36661 32.0074C6.36624 32.008 6.36588 32.0086 6.36551 32.0093C6.36515 32.0099 6.36478 32.0105 6.36441 32.0111C6.36405 32.0117 6.36368 32.0123 6.36331 32.013C6.36295 32.0136 6.36258 32.0142 6.36221 32.0148C6.36184 32.0154 6.36148 32.0161 6.36111 32.0167C6.36074 32.0173 6.36037 32.0179 6.36 32.0185C6.35963 32.0192 6.35926 32.0198 6.35889 32.0204C6.35852 32.021 6.35815 32.0217 6.35778 32.0223C6.35741 32.0229 6.35704 32.0235 6.35666 32.0242C6.35629 32.0248 6.35592 32.0254 6.35555 32.026C6.35517 32.0267 6.3548 32.0273 6.35443 32.0279C6.35405 32.0286 6.35368 32.0292 6.3533 32.0298C6.35293 32.0304 6.35255 32.0311 6.35218 32.0317C6.3518 32.0323 6.35143 32.033 6.35105 32.0336C6.35068 32.0342 6.3503 32.0349 6.34992 32.0355C6.34954 32.0362 6.34917 32.0368 6.34879 32.0374C6.34841 32.0381 6.34803 32.0387 6.34765 32.0393C6.34728 32.04 6.3469 32.0406 6.34652 32.0413C6.34614 32.0419 6.34576 32.0425 6.34538 32.0432C6.345 32.0438 6.34461 32.0445 6.34423 32.0451C6.34385 32.0457 6.34347 32.0464 6.34309 32.047C6.34271 32.0477 6.34232 32.0483 6.34194 32.049C6.34156 32.0496 6.34117 32.0503 6.34079 32.0509C6.34041 32.0515 6.34002 32.0522 6.33964 32.0528C6.33925 32.0535 6.33887 32.0541 6.33848 32.0548C6.3381 32.0554 6.33771 32.0561 6.33732 32.0567C6.33694 32.0574 6.33655 32.058 6.33616 32.0587C6.33577 32.0593 6.33539 32.06 6.335 32.0606C6.33461 32.0613 6.33422 32.062 6.33383 32.0626C6.33344 32.0633 6.33305 32.0639 6.33266 32.0646C6.33227 32.0652 6.33188 32.0659 6.33149 32.0666C6.3311 32.0672 6.33071 32.0679 6.33032 32.0685C6.32993 32.0692 6.32954 32.0698 6.32914 32.0705C6.32875 32.0712 6.32836 32.0718 6.32797 32.0725C6.32757 32.0732 6.32718 32.0738 6.32679 32.0745C6.32639 32.0751 6.326 32.0758 6.3256 32.0765C6.32521 32.0771 6.32481 32.0778 6.32442 32.0785C6.32402 32.0791 6.32362 32.0798 6.32323 32.0805C6.32283 32.0811 6.32243 32.0818 6.32204 32.0825C6.32164 32.0832 6.32124 32.0838 6.32084 32.0845C6.32044 32.0852 6.32004 32.0858 6.31965 32.0865C6.31925 32.0872 6.31885 32.0879 6.31845 32.0885C6.31805 32.0892 6.31765 32.0899 6.31724 32.0906C6.31684 32.0912 6.31644 32.0919 6.31604 32.0926C6.31564 32.0933 6.31524 32.0939 6.31483 32.0946C6.31443 32.0953 6.31403 32.096 6.31363 32.0966C6.31322 32.0973 6.31282 32.098 6.31241 32.0987C6.31201 32.0994 6.3116 32.1001 6.3112 32.1007C6.31079 32.1014 6.31039 32.1021 6.30998 32.1028C6.30958 32.1035 6.30917 32.1041 6.30876 32.1048C6.30836 32.1055 6.30795 32.1062 6.30754 32.1069C6.30713 32.1076 6.30673 32.1083 6.30632 32.109C6.30591 32.1096 6.3055 32.1103 6.30509 32.111C6.30468 32.1117 6.30427 32.1124 6.30386 32.1131C6.30345 32.1138 6.30304 32.1145 6.30263 32.1152C6.30222 32.1159 6.30181 32.1166 6.30139 32.1172C6.30098 32.1179 6.30057 32.1186 6.30016 32.1193C6.29974 32.12 6.29933 32.1207 6.29892 32.1214C6.2985 32.1221 6.29809 32.1228 6.29768 32.1235C6.29726 32.1242 6.29685 32.1249 6.29643 32.1256C6.29602 32.1263 6.2956 32.127 6.29518 32.1277C6.29477 32.1284 6.29435 32.1291 6.29393 32.1298C6.29352 32.1305 6.2931 32.1312 6.29268 32.1319C6.29226 32.1326 6.29185 32.1333 6.29143 32.134C6.29101 32.1347 6.29059 32.1354 6.29017 32.1362C6.28975 32.1369 6.28933 32.1376 6.28891 32.1383C6.28849 32.139 6.28807 32.1397 6.28765 32.1404C6.28722 32.1411 6.2868 32.1418 6.28638 32.1425C6.28596 32.1432 6.28554 32.144 6.28511 32.1447C6.28469 32.1454 6.28427 32.1461 6.28384 32.1468C6.28342 32.1475 6.283 32.1482 6.28257 32.1489C6.28215 32.1497 6.28172 32.1504 6.2813 32.1511C6.28087 32.1518 6.28044 32.1525 6.28002 32.1533C6.27959 32.154 6.27916 32.1547 6.27874 32.1554C6.27831 32.1561 6.27788 32.1568 6.27745 32.1576C6.27703 32.1583 6.2766 32.159 6.27617 32.1597C6.27574 32.1605 6.27531 32.1612 6.27488 32.1619C6.27445 32.1626 6.27402 32.1634 6.27359 32.1641C6.27316 32.1648 6.27273 32.1655 6.2723 32.1663C6.27187 32.167 6.27143 32.1677 6.271 32.1684C6.27057 32.1692 6.27014 32.1699 6.2697 32.1706C6.26927 32.1714 6.26884 32.1721 6.2684 32.1728C6.26797 32.1735 6.26753 32.1743 6.2671 32.175L7.12695 32.6855L7.98681 33.1961C7.98724 33.1954 7.98768 33.1946 7.98811 33.1939C7.98855 33.1932 7.98898 33.1924 7.98941 33.1917C7.98985 33.191 7.99028 33.1902 7.99071 33.1895C7.99114 33.1888 7.99157 33.1881 7.99201 33.1873C7.99244 33.1866 7.99287 33.1859 7.9933 33.1852C7.99373 33.1844 7.99416 33.1837 7.99459 33.183C7.99502 33.1823 7.99545 33.1815 7.99588 33.1808C7.99631 33.1801 7.99674 33.1794 7.99716 33.1786C7.99759 33.1779 7.99802 33.1772 7.99845 33.1765C7.99887 33.1758 7.9993 33.175 7.99973 33.1743C8.00015 33.1736 8.00058 33.1729 8.001 33.1722C8.00143 33.1715 8.00186 33.1707 8.00228 33.17C8.0027 33.1693 8.00313 33.1686 8.00355 33.1679C8.00398 33.1672 8.0044 33.1665 8.00482 33.1657C8.00525 33.165 8.00567 33.1643 8.00609 33.1636C8.00651 33.1629 8.00693 33.1622 8.00736 33.1615C8.00778 33.1608 8.0082 33.1601 8.00862 33.1594C8.00904 33.1586 8.00946 33.1579 8.00988 33.1572C8.0103 33.1565 8.01072 33.1558 8.01114 33.1551C8.01155 33.1544 8.01197 33.1537 8.01239 33.153C8.01281 33.1523 8.01323 33.1516 8.01364 33.1509C8.01406 33.1502 8.01448 33.1495 8.01489 33.1488C8.01531 33.1481 8.01572 33.1474 8.01614 33.1467C8.01656 33.146 8.01697 33.1453 8.01739 33.1446C8.0178 33.1439 8.01821 33.1432 8.01863 33.1425C8.01904 33.1418 8.01945 33.1411 8.01987 33.1404C8.02028 33.1397 8.02069 33.139 8.0211 33.1383C8.02152 33.1376 8.02193 33.1369 8.02234 33.1362C8.02275 33.1356 8.02316 33.1349 8.02357 33.1342C8.02398 33.1335 8.02439 33.1328 8.0248 33.1321C8.02521 33.1314 8.02562 33.1307 8.02603 33.13C8.02644 33.1293 8.02684 33.1287 8.02725 33.128C8.02766 33.1273 8.02807 33.1266 8.02847 33.1259C8.02888 33.1252 8.02929 33.1245 8.02969 33.1239C8.0301 33.1232 8.0305 33.1225 8.03091 33.1218C8.03131 33.1211 8.03172 33.1204 8.03212 33.1198C8.03253 33.1191 8.03293 33.1184 8.03333 33.1177C8.03374 33.117 8.03414 33.1164 8.03454 33.1157C8.03495 33.115 8.03535 33.1143 8.03575 33.1137C8.03615 33.113 8.03655 33.1123 8.03695 33.1116C8.03736 33.111 8.03776 33.1103 8.03816 33.1096C8.03856 33.1089 8.03896 33.1083 8.03935 33.1076C8.03975 33.1069 8.04015 33.1062 8.04055 33.1056C8.04095 33.1049 8.04135 33.1042 8.04174 33.1036C8.04214 33.1029 8.04254 33.1022 8.04294 33.1016C8.04333 33.1009 8.04373 33.1002 8.04412 33.0996C8.04452 33.0989 8.04492 33.0982 8.04531 33.0976C8.04571 33.0969 8.0461 33.0962 8.04649 33.0956C8.04689 33.0949 8.04728 33.0942 8.04768 33.0936C8.04807 33.0929 8.04846 33.0922 8.04885 33.0916C8.04925 33.0909 8.04964 33.0903 8.05003 33.0896C8.05042 33.0889 8.05081 33.0883 8.0512 33.0876C8.05159 33.087 8.05198 33.0863 8.05237 33.0857C8.05276 33.085 8.05315 33.0843 8.05354 33.0837C8.05393 33.083 8.05432 33.0824 8.05471 33.0817C8.0551 33.0811 8.05548 33.0804 8.05587 33.0798C8.05626 33.0791 8.05665 33.0785 8.05703 33.0778C8.05742 33.0772 8.0578 33.0765 8.05819 33.0759C8.05858 33.0752 8.05896 33.0746 8.05935 33.0739C8.05973 33.0733 8.06011 33.0726 8.0605 33.072C8.06088 33.0713 8.06127 33.0707 8.06165 33.07C8.06203 33.0694 8.06242 33.0687 8.0628 33.0681C8.06318 33.0675 8.06356 33.0668 8.06394 33.0662C8.06432 33.0655 8.0647 33.0649 8.06509 33.0642C8.06547 33.0636 8.06585 33.063 8.06623 33.0623C8.06661 33.0617 8.06698 33.0611 8.06736 33.0604C8.06774 33.0598 8.06812 33.0591 8.0685 33.0585C8.06888 33.0579 8.06925 33.0572 8.06963 33.0566C8.07001 33.056 8.07039 33.0553 8.07076 33.0547C8.07114 33.0541 8.07151 33.0534 8.07189 33.0528C8.07226 33.0522 8.07264 33.0515 8.07301 33.0509C8.07339 33.0503 8.07376 33.0496 8.07414 33.049C8.07451 33.0484 8.07488 33.0477 8.07526 33.0471C8.07563 33.0465 8.076 33.0459 8.07637 33.0452C8.07675 33.0446 8.07712 33.044 8.07749 33.0434C8.07786 33.0427 8.07823 33.0421 8.0786 33.0415C8.07897 33.0409 8.07934 33.0402 8.07971 33.0396C8.08008 33.039 8.08045 33.0384 8.08082 33.0378C8.08119 33.0371 8.08155 33.0365 8.08192 33.0359C8.08229 33.0353 8.08266 33.0347 8.08302 33.034C8.08339 33.0334 8.08376 33.0328 8.08412 33.0322C8.08449 33.0316 8.08486 33.031 8.08522 33.0303C8.08559 33.0297 8.08595 33.0291 8.08631 33.0285C8.08668 33.0279 8.08704 33.0273 8.08741 33.0267C8.08777 33.026 8.08813 33.0254 8.0885 33.0248C8.08886 33.0242 8.08922 33.0236 8.08958 33.023C8.08994 33.0224 8.09031 33.0218 8.09067 33.0212C8.09103 33.0206 8.09139 33.0199 8.09175 33.0193C8.09211 33.0187 8.09247 33.0181 8.09283 33.0175C8.09319 33.0169 8.09355 33.0163 8.0939 33.0157C8.09426 33.0151 8.09462 33.0145 8.09498 33.0139C8.09534 33.0133 8.09569 33.0127 8.09605 33.0121C8.09641 33.0115 8.09676 33.0109 8.09712 33.0103C8.09747 33.0097 8.09783 33.0091 8.09819 33.0085C8.09854 33.0079 8.09889 33.0073 8.09925 33.0067C8.0996 33.0061 8.09996 33.0055 8.10031 33.0049C8.10066 33.0043 8.10102 33.0037 8.10137 33.0031C8.10172 33.0025 8.10207 33.002 8.10243 33.0014C8.10278 33.0008 8.10313 33.0002 8.10348 32.9996C8.10383 32.999 8.10418 32.9984 8.10453 32.9978C8.10488 32.9972 8.10523 32.9966 8.10558 32.9961C8.10593 32.9955 8.10628 32.9949 8.10662 32.9943C8.10697 32.9937 8.10732 32.9931 8.10767 32.9925C8.10802 32.9919 8.10836 32.9914 8.10871 32.9908C8.10906 32.9902 8.1094 32.9896 8.10975 32.989C8.11009 32.9884 8.11044 32.9879 8.11078 32.9873C8.11113 32.9867 8.11147 32.9861 8.11182 32.9855C8.11216 32.985 8.1125 32.9844 8.11285 32.9838C8.11319 32.9832 8.11353 32.9827 8.11388 32.9821C8.11422 32.9815 8.11456 32.9809 8.1149 32.9804C8.11524 32.9798 8.11558 32.9792 8.11592 32.9786C8.11626 32.9781 8.1166 32.9775 8.11694 32.9769C8.11728 32.9763 8.11762 32.9758 8.11796 32.9752C8.1183 32.9746 8.11864 32.9741 8.11898 32.9735C8.11932 32.9729 8.11965 32.9723 8.11999 32.9718C8.12033 32.9712 8.12066 32.9706 8.121 32.9701C8.12134 32.9695 8.12167 32.9689 8.12201 32.9684C8.12234 32.9678 8.12268 32.9672 8.12301 32.9667C8.12335 32.9661 8.12368 32.9656 8.12402 32.965C8.12435 32.9644 8.12468 32.9639 8.12502 32.9633C8.12535 32.9628 8.12568 32.9622 8.12601 32.9616C8.12635 32.9611 8.12668 32.9605 8.12701 32.96C8.12734 32.9594 8.12767 32.9588 8.128 32.9583C8.12833 32.9577 8.12866 32.9572 8.12899 32.9566C8.12932 32.9561 8.12965 32.9555 8.12998 32.955C8.13031 32.9544 8.13064 32.9538 8.13096 32.9533C8.13129 32.9527 8.13162 32.9522 8.13195 32.9516C8.13227 32.9511 8.1326 32.9505 8.13293 32.95C8.13325 32.9494 8.13358 32.9489 8.1339 32.9483C8.13423 32.9478 8.13455 32.9473 8.13488 32.9467C8.1352 32.9462 8.13553 32.9456 8.13585 32.9451C8.13617 32.9445 8.1365 32.944 8.13682 32.9434C8.13714 32.9429 8.13746 32.9423 8.13779 32.9418C8.13811 32.9413 8.13843 32.9407 8.13875 32.9402C8.13907 32.9396 8.13939 32.9391 8.13971 32.9386C8.14003 32.938 8.14035 32.9375 8.14067 32.9369C8.14099 32.9364 8.14131 32.9359 8.14163 32.9353C8.14195 32.9348 8.14227 32.9343 8.14258 32.9337C8.1429 32.9332 8.14322 32.9327 8.14354 32.9321C8.14385 32.9316 8.14417 32.9311 8.14448 32.9305C8.1448 32.93 8.14512 32.9295 8.14543 32.9289C8.14575 32.9284 8.14606 32.9279 8.14637 32.9273C8.14669 32.9268 8.147 32.9263 8.14732 32.9258C8.14763 32.9252 8.14794 32.9247 8.14826 32.9242C8.14857 32.9236 8.14888 32.9231 8.14919 32.9226C8.1495 32.9221 8.14981 32.9215 8.15013 32.921C8.15044 32.9205 8.15075 32.92 8.15106 32.9195C8.15137 32.9189 8.15168 32.9184 8.15199 32.9179C8.15229 32.9174 8.1526 32.9169 8.15291 32.9163C8.15322 32.9158 8.15353 32.9153 8.15384 32.9148C8.15414 32.9143 8.15445 32.9137 8.15476 32.9132C8.15506 32.9127 8.15537 32.9122 8.15568 32.9117C8.15598 32.9112 8.15629 32.9106 8.15659 32.9101C8.1569 32.9096 8.1572 32.9091 8.1575 32.9086C8.15781 32.9081 8.15811 32.9076 8.15842 32.9071C8.15872 32.9066 8.15902 32.906 8.15932 32.9055C8.15963 32.905 8.15993 32.9045 8.16023 32.904C8.16053 32.9035 8.16083 32.903 8.16113 32.9025C8.16143 32.902 8.16173 32.9015 8.16203 32.901C8.16233 32.9005 8.16263 32.9 8.16293 32.8995C8.16323 32.899 8.16353 32.8984 8.16383 32.8979C8.16413 32.8974 8.16442 32.8969 8.16472 32.8964C8.16502 32.8959 8.16532 32.8954 8.16561 32.8949C8.16591 32.8944 8.1662 32.8939 8.1665 32.8934C8.1668 32.8929 8.16709 32.8925 8.16739 32.892C8.16768 32.8915 8.16797 32.891 8.16827 32.8905C8.16856 32.89 8.16886 32.8895 8.16915 32.889C8.16944 32.8885 8.16973 32.888 8.17003 32.8875C8.17032 32.887 8.17061 32.8865 8.1709 32.886C8.17119 32.8855 8.17148 32.8851 8.17177 32.8846C8.17206 32.8841 8.17235 32.8836 8.17264 32.8831C8.17293 32.8826 8.17322 32.8821 8.17351 32.8816C8.1738 32.8811 8.17409 32.8807 8.17438 32.8802C8.17467 32.8797 8.17495 32.8792 8.17524 32.8787C8.17553 32.8782 8.17581 32.8778 8.1761 32.8773C8.17639 32.8768 8.17667 32.8763 8.17696 32.8758C8.17724 32.8754 8.17753 32.8749 8.17781 32.8744C8.1781 32.8739 8.17838 32.8734 8.17866 32.873C8.17895 32.8725 8.17923 32.872 8.17951 32.8715C8.1798 32.8711 8.18008 32.8706 8.18036 32.8701C8.18064 32.8696 8.18092 32.8692 8.18121 32.8687C8.18149 32.8682 8.18177 32.8677 8.18205 32.8673C8.18233 32.8668 8.18261 32.8663 8.18289 32.8658C8.18317 32.8654 8.18345 32.8649 8.18372 32.8644C8.184 32.864 8.18428 32.8635 8.18456 32.863C8.18484 32.8626 8.18511 32.8621 8.18539 32.8616C8.18567 32.8612 8.18594 32.8607 8.18622 32.8602C8.1865 32.8598 8.18677 32.8593 8.18705 32.8588C8.18732 32.8584 8.1876 32.8579 8.18787 32.8575C8.18815 32.857 8.18842 32.8565 8.18869 32.8561C8.18897 32.8556 8.18924 32.8551 8.18951 32.8547C8.18979 32.8542 8.19006 32.8538 8.19033 32.8533C8.1906 32.8529 8.19087 32.8524 8.19114 32.8519C8.19141 32.8515 8.19169 32.851 8.19196 32.8506C8.19223 32.8501 8.1925 32.8497 8.19276 32.8492C8.19303 32.8488 8.1933 32.8483 8.19357 32.8479C8.19384 32.8474 8.19411 32.8469 8.19437 32.8465C8.19464 32.846 8.19491 32.8456 8.19518 32.8451C8.19544 32.8447 8.19571 32.8443 8.19597 32.8438C8.19624 32.8434 8.19651 32.8429 8.19677 32.8425C8.19704 32.842 8.1973 32.8416 8.19756 32.8411C8.19783 32.8407 8.19809 32.8402 8.19836 32.8398C8.19862 32.8394 8.19888 32.8389 8.19914 32.8385C8.19941 32.838 8.19967 32.8376 8.19993 32.8371C8.20019 32.8367 8.20045 32.8363 8.20071 32.8358C8.20098 32.8354 8.20124 32.8349 8.2015 32.8345C8.20176 32.8341 8.20201 32.8336 8.20227 32.8332C8.20253 32.8328 8.20279 32.8323 8.20305 32.8319C8.20331 32.8315 8.20357 32.831 8.20382 32.8306C8.20408 32.8302 8.20434 32.8297 8.20459 32.8293C8.20485 32.8289 8.20511 32.8284 8.20536 32.828C8.20562 32.8276 8.20587 32.8271 8.20613 32.8267C8.20638 32.8263 8.20664 32.8258 8.20689 32.8254C8.20714 32.825 8.2074 32.8246 8.20765 32.8241C8.2079 32.8237 8.20816 32.8233 8.20841 32.8229C8.20866 32.8224 8.20891 32.822 8.20917 32.8216C8.20942 32.8212 8.20967 32.8207 8.20992 32.8203C8.21017 32.8199 8.21042 32.8195 8.21067 32.8191C8.21092 32.8186 8.21117 32.8182 8.21142 32.8178C8.21167 32.8174 8.21191 32.817 8.21216 32.8165C8.21241 32.8161 8.21266 32.8157 8.2129 32.8153C8.21315 32.8149 8.2134 32.8145 8.21364 32.814C8.21389 32.8136 8.21414 32.8132 8.21438 32.8128C8.21463 32.8124 8.21487 32.812 8.21512 32.8116C8.21536 32.8112 8.21561 32.8107 8.21585 32.8103C8.21609 32.8099 8.21634 32.8095 8.21658 32.8091C8.21682 32.8087 8.21707 32.8083 8.21731 32.8079C8.21755 32.8075 8.21779 32.8071 8.21803 32.8067C8.21827 32.8062 8.21851 32.8058 8.21875 32.8054C8.219 32.805 8.21924 32.8046 8.21947 32.8042C8.21971 32.8038 8.21995 32.8034 8.22019 32.803C8.22043 32.8026 8.22067 32.8022 8.22091 32.8018C8.22114 32.8014 8.22138 32.801 8.22162 32.8006C8.22186 32.8002 8.22209 32.7998 8.22233 32.7994C8.22256 32.799 8.2228 32.7986 8.22304 32.7982C8.22327 32.7978 8.22351 32.7974 8.22374 32.797C8.22397 32.7966 8.22421 32.7963 8.22444 32.7959C8.22468 32.7955 8.22491 32.7951 8.22514 32.7947C8.22537 32.7943 8.22561 32.7939 8.22584 32.7935C8.22607 32.7931 8.2263 32.7927 8.22653 32.7923C8.22676 32.7919 8.22699 32.7916 8.22722 32.7912C8.22745 32.7908 8.22768 32.7904 8.22791 32.79C8.22814 32.7896 8.22837 32.7892 8.2286 32.7889C8.22883 32.7885 8.22906 32.7881 8.22928 32.7877C8.22951 32.7873 8.22974 32.7869 8.22997 32.7866C8.23019 32.7862 8.23042 32.7858 8.23065 32.7854C8.23087 32.785 8.2311 32.7847 8.23132 32.7843C8.23155 32.7839 8.23177 32.7835 8.232 32.7831C8.23222 32.7828 8.23244 32.7824 8.23267 32.782C8.23289 32.7816 8.23311 32.7813 8.23334 32.7809C8.23356 32.7805 8.23378 32.7801 8.234 32.7798C8.23422 32.7794 8.23445 32.779 8.23467 32.7786C8.23489 32.7783 8.23511 32.7779 8.23533 32.7775C8.23555 32.7772 8.23577 32.7768 8.23599 32.7764C8.23621 32.776 8.23642 32.7757 8.23664 32.7753C8.23686 32.7749 8.23708 32.7746 8.2373 32.7742C8.23751 32.7738 8.23773 32.7735 8.23795 32.7731C8.23816 32.7727 8.23838 32.7724 8.2386 32.772C8.23881 32.7717 8.23903 32.7713 8.23924 32.7709C8.23946 32.7706 8.23967 32.7702 8.23989 32.7699C8.2401 32.7695 8.24031 32.7691 8.24053 32.7688C8.24074 32.7684 8.24095 32.7681 8.24116 32.7677C8.24138 32.7673 8.24159 32.767 8.2418 32.7666C8.24201 32.7663 8.24222 32.7659 8.24243 32.7656C8.24264 32.7652 8.24285 32.7649 8.24306 32.7645C8.24327 32.7641 8.24348 32.7638 8.24369 32.7634C8.2439 32.7631 8.24411 32.7627 8.24432 32.7624C8.24453 32.762 8.24473 32.7617 8.24494 32.7613C8.24515 32.761 8.24535 32.7606 8.24556 32.7603C8.24577 32.7599 8.24597 32.7596 8.24618 32.7593C8.24638 32.7589 8.24659 32.7586 8.24679 32.7582C8.247 32.7579 8.2472 32.7575 8.24741 32.7572C8.24761 32.7568 8.24781 32.7565 8.24802 32.7562C8.24822 32.7558 8.24842 32.7555 8.24862 32.7551C8.24883 32.7548 8.24903 32.7545 8.24923 32.7541C8.24943 32.7538 8.24963 32.7534 8.24983 32.7531C8.25003 32.7528 8.25023 32.7524 8.25043 32.7521C8.25063 32.7517 8.25083 32.7514 8.25103 32.7511C8.25123 32.7507 8.25143 32.7504 8.25163 32.7501C8.25182 32.7497 8.25202 32.7494 8.25222 32.7491C8.25241 32.7487 8.25261 32.7484 8.25281 32.7481C8.253 32.7478 8.2532 32.7474 8.2534 32.7471C8.25359 32.7468 8.25379 32.7464 8.25398 32.7461C8.25417 32.7458 8.25437 32.7455 8.25456 32.7451C8.25476 32.7448 8.25495 32.7445 8.25514 32.7442C8.25533 32.7438 8.25553 32.7435 8.25572 32.7432C8.25591 32.7429 8.2561 32.7425 8.25629 32.7422C8.25648 32.7419 8.25668 32.7416 8.25687 32.7413C8.25706 32.7409 8.25725 32.7406 8.25744 32.7403C8.25762 32.74 8.25781 32.7397 8.258 32.7393C8.25819 32.739 8.25838 32.7387 8.25857 32.7384C8.25875 32.7381 8.25894 32.7378 8.25913 32.7374C8.25932 32.7371 8.2595 32.7368 8.25969 32.7365C8.25987 32.7362 8.26006 32.7359 8.26024 32.7356C8.26043 32.7352 8.26061 32.7349 8.2608 32.7346C8.26098 32.7343 8.26117 32.734 8.26135 32.7337C8.26153 32.7334 8.26172 32.7331 8.2619 32.7328C8.26208 32.7325 8.26226 32.7322 8.26245 32.7319C8.26263 32.7315 8.26281 32.7312 8.26299 32.7309C8.26317 32.7306 8.26335 32.7303 8.26353 32.73C8.26371 32.7297 8.26389 32.7294 8.26407 32.7291C8.26425 32.7288 8.26443 32.7285 8.26461 32.7282C8.26479 32.7279 8.26496 32.7276 8.26514 32.7273C8.26532 32.727 8.2655 32.7267 8.26567 32.7264C8.26585 32.7261 8.26602 32.7258 8.2662 32.7255C8.26638 32.7252 8.26655 32.7249 8.26673 32.7246C8.2669 32.7243 8.26708 32.7241 8.26725 32.7238C8.26742 32.7235 8.2676 32.7232 8.26777 32.7229C8.26794 32.7226 8.26812 32.7223 8.26829 32.722C8.26846 32.7217 8.26863 32.7214 8.26881 32.7211C8.26898 32.7209 8.26915 32.7206 8.26932 32.7203C8.26949 32.72 8.26966 32.7197 8.26983 32.7194C8.27 32.7191 8.27017 32.7188 8.27034 32.7186C8.27051 32.7183 8.27068 32.718 8.27084 32.7177C8.27101 32.7174 8.27118 32.7171 8.27135 32.7169C8.27151 32.7166 8.27168 32.7163 8.27185 32.716C8.27201 32.7157 8.27218 32.7155 8.27235 32.7152C8.27251 32.7149 8.27268 32.7146 8.27284 32.7143C8.27301 32.7141 8.27317 32.7138 8.27334 32.7135C8.2735 32.7132 8.27366 32.713 8.27383 32.7127C8.27399 32.7124 8.27415 32.7121 8.27431 32.7119C8.27448 32.7116 8.27464 32.7113 8.2748 32.711C8.27496 32.7108 8.27512 32.7105 8.27528 32.7102C8.27544 32.71 8.2756 32.7097 8.27576 32.7094C8.27592 32.7092 8.27608 32.7089 8.27624 32.7086C8.2764 32.7084 8.27656 32.7081 8.27672 32.7078C8.27687 32.7076 8.27703 32.7073 8.27719 32.707C8.27735 32.7068 8.2775 32.7065 8.27766 32.7062C8.27781 32.706 8.27797 32.7057 8.27813 32.7054C8.27828 32.7052 8.27844 32.7049 8.27859 32.7047C8.27875 32.7044 8.2789 32.7041 8.27905 32.7039C8.27921 32.7036 8.27936 32.7034 8.27951 32.7031C8.27967 32.7029 8.27982 32.7026 8.27997 32.7023C8.28012 32.7021 8.28027 32.7018 8.28043 32.7016C8.28058 32.7013 8.28073 32.7011 8.28088 32.7008C8.28103 32.7006 8.28118 32.7003 8.28133 32.7001C8.28148 32.6998 8.28163 32.6996 8.28177 32.6993C8.28192 32.699 8.28207 32.6988 8.28222 32.6986C8.28237 32.6983 8.28251 32.6981 8.28266 32.6978C8.28281 32.6976 8.28295 32.6973 8.2831 32.6971C8.28325 32.6968 8.28339 32.6966 8.28354 32.6963C8.28368 32.6961 8.28383 32.6958 8.28397 32.6956C8.28412 32.6954 8.28426 32.6951 8.2844 32.6949C8.28455 32.6946 8.28469 32.6944 8.28483 32.6941C8.28498 32.6939 8.28512 32.6937 8.28526 32.6934C8.2854 32.6932 8.28554 32.693 8.28568 32.6927C8.28583 32.6925 8.28597 32.6922 8.28611 32.692C8.28625 32.6918 8.28639 32.6915 8.28653 32.6913C8.28666 32.6911 8.2868 32.6908 8.28694 32.6906C8.28708 32.6904 8.28722 32.6901 8.28736 32.6899C8.28749 32.6897 8.28763 32.6894 8.28777 32.6892C8.2879 32.689 8.28804 32.6887 8.28818 32.6885C8.28831 32.6883 8.28845 32.6881 8.28858 32.6878C8.28872 32.6876 8.28885 32.6874 8.28899 32.6872C8.28912 32.6869 8.28925 32.6867 8.28939 32.6865C8.28952 32.6863 8.28965 32.686 8.28979 32.6858C8.28992 32.6856 8.29005 32.6854 8.29018 32.6851C8.29031 32.6849 8.29045 32.6847 8.29058 32.6845C8.29071 32.6843 8.29084 32.684 8.29097 32.6838C8.2911 32.6836 8.29123 32.6834 8.29136 32.6832C8.29149 32.6829 8.29161 32.6827 8.29174 32.6825C8.29187 32.6823 8.292 32.6821 8.29213 32.6819C8.29225 32.6817 8.29238 32.6814 8.29251 32.6812C8.29263 32.681 8.29276 32.6808 8.29289 32.6806C8.29301 32.6804 8.29314 32.6802 8.29326 32.68C8.29339 32.6797 8.29351 32.6795 8.29363 32.6793C8.29376 32.6791 8.29388 32.6789 8.29401 32.6787C8.29413 32.6785 8.29425 32.6783 8.29437 32.6781C8.2945 32.6779 8.29462 32.6777 8.29474 32.6775C8.29486 32.6773 8.29498 32.6771 8.2951 32.6769C8.29522 32.6766 8.29534 32.6764 8.29546 32.6762C8.29558 32.676 8.2957 32.6758 8.29582 32.6756C8.29594 32.6754 8.29606 32.6752 8.29618 32.675C8.29629 32.6748 8.29641 32.6746 8.29653 32.6744C8.29665 32.6743 8.29676 32.6741 8.29688 32.6739C8.297 32.6737 8.29711 32.6735 8.29723 32.6733C8.29734 32.6731 8.29746 32.6729 8.29757 32.6727C8.29769 32.6725 8.2978 32.6723 8.29792 32.6721C8.29803 32.6719 8.29814 32.6717 8.29826 32.6715C8.29837 32.6714 8.29848 32.6712 8.29859 32.671C8.29871 32.6708 8.29882 32.6706 8.29893 32.6704C8.29904 32.6702 8.29915 32.67 8.29926 32.6698C8.29937 32.6697 8.29948 32.6695 8.29959 32.6693C8.2997 32.6691 8.29981 32.6689 8.29992 32.6687C8.30003 32.6686 8.30014 32.6684 8.30024 32.6682C8.30035 32.668 8.30046 32.6678 8.30057 32.6677C8.30067 32.6675 8.30078 32.6673 8.30089 32.6671C8.30099 32.6669 8.3011 32.6668 8.3012 32.6666C8.30131 32.6664 8.30141 32.6662 8.30152 32.666C8.30162 32.6659 8.30173 32.6657 8.30183 32.6655C8.30193 32.6653 8.30204 32.6652 8.30214 32.665C8.30224 32.6648 8.30234 32.6647 8.30245 32.6645C8.30255 32.6643 8.30265 32.6641 8.30275 32.664C8.30285 32.6638 8.30295 32.6636 8.30305 32.6635C8.30315 32.6633 8.30325 32.6631 8.30335 32.663C8.30345 32.6628 8.30355 32.6626 8.30365 32.6625C8.30375 32.6623 8.30385 32.6621 8.30394 32.662C8.30404 32.6618 8.30414 32.6616 8.30423 32.6615C8.30433 32.6613 8.30443 32.6611 8.30452 32.661C8.30462 32.6608 8.30472 32.6607 8.30481 32.6605C8.30491 32.6603 8.305 32.6602 8.30509 32.66C8.30519 32.6599 8.30528 32.6597 8.30538 32.6595C8.30547 32.6594 8.30556 32.6592 8.30566 32.6591C8.30575 32.6589 8.30584 32.6588 8.30593 32.6586C8.30602 32.6585 8.30611 32.6583 8.30621 32.6582C8.3063 32.658 8.30639 32.6578 8.30648 32.6577C8.30657 32.6575 8.30666 32.6574 8.30675 32.6572C8.30684 32.6571 8.30692 32.6569 8.30701 32.6568C8.3071 32.6566 8.30719 32.6565 8.30728 32.6564C8.30736 32.6562 8.30745 32.6561 8.30754 32.6559C8.30762 32.6558 8.30771 32.6556 8.3078 32.6555C8.30788 32.6553 8.30797 32.6552 8.30805 32.655C8.30814 32.6549 8.30822 32.6548 8.30831 32.6546C8.30839 32.6545 8.30847 32.6543 8.30856 32.6542C8.30864 32.6541 8.30872 32.6539 8.3088 32.6538C8.30889 32.6536 8.30897 32.6535 8.30905 32.6534C8.30913 32.6532 8.30921 32.6531 8.30929 32.653C8.30937 32.6528 8.30945 32.6527 8.30953 32.6525C8.30961 32.6524 8.30969 32.6523 8.30977 32.6521C8.30985 32.652 8.30993 32.6519 8.31001 32.6517C8.31009 32.6516 8.31016 32.6515 8.31024 32.6514C8.31032 32.6512 8.3104 32.6511 8.31047 32.651C8.31055 32.6508 8.31062 32.6507 8.3107 32.6506C8.31078 32.6505 8.31085 32.6503 8.31093 32.6502C8.311 32.6501 8.31108 32.65 8.31115 32.6498C8.31122 32.6497 8.3113 32.6496 8.31137 32.6495C8.31144 32.6493 8.31152 32.6492 8.31159 32.6491C8.31166 32.649 8.31173 32.6488 8.3118 32.6487C8.31187 32.6486 8.31194 32.6485 8.31202 32.6484C8.31209 32.6482 8.31216 32.6481 8.31223 32.648C8.3123 32.6479 8.31236 32.6478 8.31243 32.6477C8.3125 32.6475 8.31257 32.6474 8.31264 32.6473C8.31271 32.6472 8.31277 32.6471 8.31284 32.647C8.31291 32.6469 8.31297 32.6468 8.31304 32.6466C8.31311 32.6465 8.31317 32.6464 8.31324 32.6463C8.3133 32.6462 8.31337 32.6461 8.31343 32.646C8.3135 32.6459 8.31356 32.6458 8.31363 32.6457C8.31369 32.6455 8.31375 32.6454 8.31382 32.6453C8.31388 32.6452 8.31394 32.6451 8.314 32.645C8.31406 32.6449 8.31413 32.6448 8.31419 32.6447C8.31425 32.6446 8.31431 32.6445 8.31437 32.6444C8.31443 32.6443 8.31449 32.6442 8.31455 32.6441C8.31461 32.644 8.31467 32.6439 8.31473 32.6438C8.31479 32.6437 8.31484 32.6436 8.3149 32.6435C8.31496 32.6434 8.31502 32.6433 8.31507 32.6432C8.31513 32.6431 8.31519 32.643 8.31524 32.6429C8.3153 32.6428 8.31535 32.6427 8.31541 32.6427C8.31546 32.6426 8.31552 32.6425 8.31557 32.6424C8.31563 32.6423 8.31568 32.6422 8.31574 32.6421C8.31579 32.642 8.31584 32.6419 8.31589 32.6418C8.31595 32.6417 8.316 32.6417 8.31605 32.6416C8.3161 32.6415 8.31615 32.6414 8.31621 32.6413C8.31626 32.6412 8.31631 32.6411 8.31636 32.6411C8.31641 32.641 8.31646 32.6409 8.31651 32.6408C8.31656 32.6407 8.3166 32.6406 8.31665 32.6406C8.3167 32.6405 8.31675 32.6404 8.3168 32.6403C8.31684 32.6402 8.31689 32.6402 8.31694 32.6401C8.31698 32.64 8.31703 32.6399 8.31708 32.6398C8.31712 32.6398 8.31717 32.6397 8.31721 32.6396C8.31726 32.6395 8.3173 32.6395 8.31735 32.6394C8.31739 32.6393 8.31744 32.6392 8.31748 32.6392C8.31752 32.6391 8.31756 32.639 8.31761 32.639C8.31765 32.6389 8.31769 32.6388 8.31773 32.6387C8.31777 32.6387 8.31782 32.6386 8.31786 32.6385C8.3179 32.6385 8.31794 32.6384 8.31798 32.6383C8.31802 32.6383 8.31806 32.6382 8.3181 32.6381C8.31814 32.6381 8.31817 32.638 8.31821 32.6379C8.31825 32.6379 8.31829 32.6378 8.31833 32.6377C8.31836 32.6377 8.3184 32.6376 8.31844 32.6376C8.31847 32.6375 8.31851 32.6374 8.31854 32.6374C8.31858 32.6373 8.31862 32.6373 8.31865 32.6372C8.31869 32.6371 8.31872 32.6371 8.31875 32.637C8.31879 32.637 8.31882 32.6369 8.31885 32.6368C8.31889 32.6368 8.31892 32.6367 8.31895 32.6367C8.31898 32.6366 8.31902 32.6366 8.31905 32.6365C8.31908 32.6365 8.31911 32.6364 8.31914 32.6364C8.31917 32.6363 8.3192 32.6363 8.31923 32.6362C8.31926 32.6362 8.31929 32.6361 8.31932 32.6361C8.31935 32.636 8.31938 32.636 8.3194 32.6359C8.31943 32.6359 8.31946 32.6358 8.31949 32.6358C8.31951 32.6357 8.31954 32.6357 8.31957 32.6356C8.31959 32.6356 8.31962 32.6356 8.31965 32.6355C8.31967 32.6355 8.3197 32.6354 8.31972 32.6354C8.31975 32.6353 8.31977 32.6353 8.31979 32.6353C8.31982 32.6352 8.31984 32.6352 8.31986 32.6351C8.31989 32.6351 8.31991 32.6351 8.31993 32.635C8.31995 32.635 8.31997 32.635 8.32 32.6349C8.32002 32.6349 8.32004 32.6349 8.32006 32.6348C8.32008 32.6348 8.3201 32.6348 8.32012 32.6347C8.32014 32.6347 8.32016 32.6347 8.32018 32.6346C8.32019 32.6346 8.32021 32.6346 8.32023 32.6345C8.32025 32.6345 8.32027 32.6345 8.32028 32.6344C8.3203 32.6344 8.32032 32.6344 8.32033 32.6344C8.32035 32.6343 8.32036 32.6343 8.32038 32.6343C8.32039 32.6343 8.32041 32.6342 8.32042 32.6342C8.32044 32.6342 8.32045 32.6342 8.32047 32.6341C8.32048 32.6341 8.32049 32.6341 8.32051 32.6341C8.32052 32.634 8.32053 32.634 8.32054 32.634C8.32055 32.634 8.32057 32.634 8.32058 32.6339C8.32059 32.6339 8.3206 32.6339 8.32061 32.6339C8.32062 32.6339 8.32063 32.6339 8.32064 32.6338C8.32065 32.6338 8.32066 32.6338 8.32066 32.6338C8.32067 32.6338 8.32068 32.6338 8.32069 32.6338C8.3207 32.6337 8.3207 32.6337 8.32071 32.6337C8.32072 32.6337 8.32072 32.6337 8.32073 32.6337C8.32074 32.6337 8.32074 32.6337 8.32075 32.6337C8.32075 32.6337 8.32076 32.6336 8.32076 32.6336C8.32076 32.6336 8.32077 32.6336 8.32077 32.6336C8.32078 32.6336 8.32078 32.6336 8.32078 32.6336C8.32078 32.6336 8.32079 32.6336 8.32079 32.6336C8.32079 32.6336 8.32079 32.6336 8.32079 32.6336C8.32079 32.6336 8.32079 32.6336 7.46094 32.123ZM7.12695 32.6855L6.26603 32.1768C6.16185 32.3531 6.08207 32.4254 6.04723 32.4501C6.03173 32.4611 6.0264 32.4619 6.03056 32.4606C6.03522 32.459 6.03886 32.459 6.03711 32.459V33.459V34.459C6.95075 34.459 7.58685 33.8729 7.98788 33.1943L7.12695 32.6855ZM6.03711 33.459V32.459C6.06394 32.459 6.17379 32.4674 6.29449 32.5559C6.41485 32.6442 6.4552 32.7455 6.46269 32.7691L5.50977 33.0723L4.55684 33.3755C4.64636 33.6568 4.81562 33.9515 5.11176 34.1687C5.40824 34.3861 5.74075 34.459 6.03711 34.459V33.459ZM5.50977 33.0723L6.4538 32.7424C6.28756 32.2666 6.16839 31.8923 6.09199 31.6131C6.00705 31.3026 6 31.1958 6 31.209H5H4C4 31.4917 4.07791 31.8302 4.16289 32.1408C4.25641 32.4827 4.39213 32.9052 4.56573 33.4021L5.50977 33.0723ZM5 31.209H6C6 31.3938 5.81951 31.3049 6.31461 31.1132C6.79475 30.9274 7.61621 30.783 8.85589 30.7316L8.81445 29.7324L8.77301 28.7333C7.46973 28.7873 6.38396 28.9418 5.59262 29.2481C4.81623 29.5486 4 30.1453 4 31.209H5ZM8.81445 29.7324L9.7764 30.0056C11.7465 23.0695 13.8258 17.6226 16.0027 13.6355L15.125 13.1562L14.2473 12.677C11.9711 16.8462 9.84335 22.45 7.8525 29.4592L8.81445 29.7324ZM15.125 13.1562L16.0029 13.6351C16.9355 11.9254 17.7729 10.6715 18.5107 9.83738C19.2753 8.97307 19.8078 8.7027 20.107 8.66333L19.9766 7.67188L19.8461 6.68042C18.8094 6.81683 17.8653 7.54842 17.0127 8.51223C16.1334 9.50628 15.213 10.9067 14.2471 12.6774L15.125 13.1562ZM19.9766 7.67188L20.1309 8.65989C20.0431 8.67362 20.0314 8.65406 20.1615 8.68179C20.2716 8.70524 20.4324 8.75126 20.6524 8.82946C21.0914 8.9855 21.6916 9.24267 22.4636 9.61135L22.8945 8.70898L23.3255 7.80662C22.5271 7.4253 21.8558 7.13461 21.3222 6.94495C21.0559 6.8503 20.8051 6.77401 20.5782 6.72568C20.3715 6.68163 20.0976 6.64083 19.8222 6.68386L19.9766 7.67188ZM22.8945 8.70898L22.955 9.70715C23.3366 9.68403 23.6053 9.67383 23.7734 9.67383V8.67383V7.67383C23.5432 7.67383 23.2259 7.68707 22.834 7.71082L22.8945 8.70898ZM23.7734 8.67383V9.67383C23.8694 9.67383 23.9425 9.67923 23.9959 9.68655C24.0499 9.69395 24.0749 9.70211 24.0787 9.70346C24.0822 9.70471 24.0549 9.69561 24.0141 9.66421C23.9705 9.63069 23.9209 9.57873 23.8816 9.50731L24.7578 9.02539L25.634 8.54347C25.4199 8.1541 25.0743 7.93531 24.7514 7.81998C24.4389 7.70838 24.099 7.67383 23.7734 7.67383V8.67383ZM24.7578 9.02539L23.8634 9.4726C23.8341 9.41394 23.8334 9.38856 23.8436 9.43516C23.852 9.47305 23.8629 9.5375 23.8736 9.63547C23.8952 9.83173 23.9105 10.1104 23.9161 10.4819L24.916 10.4668L25.9159 10.4516C25.9098 10.0497 25.8929 9.70148 25.8617 9.41727C25.8349 9.17304 25.7864 8.84645 25.6522 8.57818L24.7578 9.02539Z" fill="#FF477B" mask="url(#path-2-outside-1_57_7)"/>
<mask id="path-4-outside-2_57_7" maskUnits="userSpaceOnUse" x="17.175" y="14.2927" width="24" height="28" fill="black">
<rect fill="white" x="17.175" y="14.2927" width="24" height="28"/>
<path d="M39.429 19.8142C39.2532 22.8611 38.1926 25.3571 36.2473 27.3025C35.8137 27.7361 35.2336 28.1286 34.5071 28.4802C33.8508 28.8083 33.3059 28.99 32.8723 29.0251C35.6731 30.7478 37.5715 32.2829 38.5676 33.6306C39.0012 34.2282 39.218 34.7732 39.218 35.2654C39.218 35.9568 38.7727 36.8767 37.8821 38.0251C37.9993 38.2243 38.0579 38.4177 38.0579 38.6052C38.0579 40.0466 35.3918 40.7673 30.0598 40.7673C28.9465 40.7673 27.7395 40.7263 26.4387 40.6443C25.1497 40.5739 24.4641 40.2868 24.3821 39.7829C24.2883 39.3142 24.3821 38.6814 24.6633 37.8845C24.7922 37.4978 25.0266 37.3044 25.3665 37.3044C25.2258 37.3044 25.6125 37.363 26.5266 37.4802C26.7961 37.5154 27.0715 37.7673 27.3528 38.2361C27.6458 38.6931 28.1438 38.9568 28.8469 39.0271C29.2922 39.0739 29.802 39.0974 30.3762 39.0974C32.884 39.0974 34.8176 38.7868 36.177 38.1657C36.8567 37.8611 37.1965 37.404 37.1965 36.7946C37.1965 36.0798 36.7981 35.3005 36.0012 34.4568C35.4856 33.906 34.4602 33.0739 32.925 31.9607C31.2493 30.7536 30.0891 30.0505 29.4446 29.8513C28.2727 29.8513 27.6868 29.6345 27.6868 29.2009C27.6868 29.0486 28.2024 28.5681 29.2336 27.7595C29.4797 27.572 29.72 27.4782 29.9543 27.4782C30.1887 27.4782 30.4641 27.572 30.7805 27.7595C31.0618 27.9118 31.3372 28.07 31.6067 28.2341C32.7551 28.1755 33.8391 27.5368 34.8586 26.3181C35.4094 25.6501 35.9426 24.6892 36.4583 23.4353C37.0442 22.0173 37.3372 20.8103 37.3372 19.8142C37.3372 19.1462 37.1379 18.7243 36.7395 18.5486C36.4934 18.4314 36.0188 18.3962 35.3157 18.4431C34.8469 18.4782 34.0676 18.6247 32.9778 18.8825C31.7356 19.1755 30.8098 19.4626 30.2004 19.7439C29.1926 23.3767 27.886 27.3259 26.2805 31.5915C24.8274 35.4704 23.8313 37.82 23.2922 38.6404C22.9407 39.1677 22.6829 39.4841 22.5188 39.5896C22.3079 39.7302 21.7864 39.8825 20.9543 40.0466C20.3918 40.1521 20.1106 40.1111 20.1106 39.9236C20.1106 39.8298 20.1399 39.7009 20.1985 39.5368C20.8665 37.6618 21.2004 36.279 21.2004 35.3884C21.2004 34.8025 21.2532 34.4685 21.3586 34.3864C21.4055 34.3513 21.8977 34.1696 22.8352 33.8415C23.1516 33.7361 23.3508 33.8708 23.4329 34.2458C24.4758 32.1247 25.4895 29.5876 26.4739 26.6345C27.3176 24.1032 27.8801 22.1169 28.1614 20.6755C25.0325 22.0114 22.8938 23.4118 21.7454 24.8767C21.4524 25.2634 21.3059 25.6911 21.3059 26.1599C21.3059 26.4529 21.3938 26.9509 21.5696 27.654C21.6047 27.8181 21.6223 27.9529 21.6223 28.0583C21.6223 28.281 21.5461 28.3923 21.3938 28.3923C21.1946 28.3923 20.9778 28.2575 20.7434 27.988C19.5715 26.6052 18.9856 25.5622 18.9856 24.8591C18.9856 24.6013 19.1848 24.2263 19.5833 23.7341C20.3567 22.8083 21.6926 21.7478 23.5911 20.5525C25.4543 19.3806 27.1536 18.5193 28.6887 17.9685C28.8059 17.1833 28.8469 16.6911 28.8118 16.4919C28.7415 16.1638 28.8411 15.9997 29.1106 15.9997C29.2395 15.9997 29.3918 16.0818 29.5676 16.2458C30.0833 16.7614 30.3059 17.1306 30.2356 17.3532C32.802 16.615 34.5657 16.2575 35.5266 16.281C36.2297 16.3044 36.7922 16.5036 37.2141 16.8786C37.4836 17.1364 37.8235 17.6462 38.2336 18.4079C38.5969 18.3845 38.884 18.4724 39.095 18.6716C39.3411 18.9177 39.4524 19.2986 39.429 19.8142Z"/>
</mask>
<path d="M39.429 19.8142C39.2532 22.8611 38.1926 25.3571 36.2473 27.3025C35.8137 27.7361 35.2336 28.1286 34.5071 28.4802C33.8508 28.8083 33.3059 28.99 32.8723 29.0251C35.6731 30.7478 37.5715 32.2829 38.5676 33.6306C39.0012 34.2282 39.218 34.7732 39.218 35.2654C39.218 35.9568 38.7727 36.8767 37.8821 38.0251C37.9993 38.2243 38.0579 38.4177 38.0579 38.6052C38.0579 40.0466 35.3918 40.7673 30.0598 40.7673C28.9465 40.7673 27.7395 40.7263 26.4387 40.6443C25.1497 40.5739 24.4641 40.2868 24.3821 39.7829C24.2883 39.3142 24.3821 38.6814 24.6633 37.8845C24.7922 37.4978 25.0266 37.3044 25.3665 37.3044C25.2258 37.3044 25.6125 37.363 26.5266 37.4802C26.7961 37.5154 27.0715 37.7673 27.3528 38.2361C27.6458 38.6931 28.1438 38.9568 28.8469 39.0271C29.2922 39.0739 29.802 39.0974 30.3762 39.0974C32.884 39.0974 34.8176 38.7868 36.177 38.1657C36.8567 37.8611 37.1965 37.404 37.1965 36.7946C37.1965 36.0798 36.7981 35.3005 36.0012 34.4568C35.4856 33.906 34.4602 33.0739 32.925 31.9607C31.2493 30.7536 30.0891 30.0505 29.4446 29.8513C28.2727 29.8513 27.6868 29.6345 27.6868 29.2009C27.6868 29.0486 28.2024 28.5681 29.2336 27.7595C29.4797 27.572 29.72 27.4782 29.9543 27.4782C30.1887 27.4782 30.4641 27.572 30.7805 27.7595C31.0618 27.9118 31.3372 28.07 31.6067 28.2341C32.7551 28.1755 33.8391 27.5368 34.8586 26.3181C35.4094 25.6501 35.9426 24.6892 36.4583 23.4353C37.0442 22.0173 37.3372 20.8103 37.3372 19.8142C37.3372 19.1462 37.1379 18.7243 36.7395 18.5486C36.4934 18.4314 36.0188 18.3962 35.3157 18.4431C34.8469 18.4782 34.0676 18.6247 32.9778 18.8825C31.7356 19.1755 30.8098 19.4626 30.2004 19.7439C29.1926 23.3767 27.886 27.3259 26.2805 31.5915C24.8274 35.4704 23.8313 37.82 23.2922 38.6404C22.9407 39.1677 22.6829 39.4841 22.5188 39.5896C22.3079 39.7302 21.7864 39.8825 20.9543 40.0466C20.3918 40.1521 20.1106 40.1111 20.1106 39.9236C20.1106 39.8298 20.1399 39.7009 20.1985 39.5368C20.8665 37.6618 21.2004 36.279 21.2004 35.3884C21.2004 34.8025 21.2532 34.4685 21.3586 34.3864C21.4055 34.3513 21.8977 34.1696 22.8352 33.8415C23.1516 33.7361 23.3508 33.8708 23.4329 34.2458C24.4758 32.1247 25.4895 29.5876 26.4739 26.6345C27.3176 24.1032 27.8801 22.1169 28.1614 20.6755C25.0325 22.0114 22.8938 23.4118 21.7454 24.8767C21.4524 25.2634 21.3059 25.6911 21.3059 26.1599C21.3059 26.4529 21.3938 26.9509 21.5696 27.654C21.6047 27.8181 21.6223 27.9529 21.6223 28.0583C21.6223 28.281 21.5461 28.3923 21.3938 28.3923C21.1946 28.3923 20.9778 28.2575 20.7434 27.988C19.5715 26.6052 18.9856 25.5622 18.9856 24.8591C18.9856 24.6013 19.1848 24.2263 19.5833 23.7341C20.3567 22.8083 21.6926 21.7478 23.5911 20.5525C25.4543 19.3806 27.1536 18.5193 28.6887 17.9685C28.8059 17.1833 28.8469 16.6911 28.8118 16.4919C28.7415 16.1638 28.8411 15.9997 29.1106 15.9997C29.2395 15.9997 29.3918 16.0818 29.5676 16.2458C30.0833 16.7614 30.3059 17.1306 30.2356 17.3532C32.802 16.615 34.5657 16.2575 35.5266 16.281C36.2297 16.3044 36.7922 16.5036 37.2141 16.8786C37.4836 17.1364 37.8235 17.6462 38.2336 18.4079C38.5969 18.3845 38.884 18.4724 39.095 18.6716C39.3411 18.9177 39.4524 19.2986 39.429 19.8142Z" fill="white"/>
<path d="M39.429 19.8142L40.4274 19.8718L40.4279 19.8596L39.429 19.8142ZM34.5071 28.4802L34.0715 27.58L34.0599 27.5858L34.5071 28.4802ZM32.8723 29.0251L32.7915 28.0284L29.7447 28.2754L32.3484 29.8769L32.8723 29.0251ZM38.5676 33.6306L39.3771 33.0433L39.3718 33.0362L38.5676 33.6306ZM37.8821 38.0251L37.0919 37.4123L36.6765 37.9479L37.0201 38.5321L37.8821 38.0251ZM26.4387 40.6443L26.5017 39.6462L26.4932 39.6457L26.4387 40.6443ZM24.3821 39.7829L25.3691 39.6223L25.3662 39.6045L25.3627 39.5868L24.3821 39.7829ZM24.6633 37.8845L25.6063 38.2173L25.6092 38.209L25.612 38.2007L24.6633 37.8845ZM26.5266 37.4802L26.656 36.4886L26.6538 36.4883L26.5266 37.4802ZM27.3528 38.2361L26.4953 38.7505L26.5029 38.7633L26.5109 38.7757L27.3528 38.2361ZM28.8469 39.0271L28.9516 38.0326L28.9464 38.032L28.8469 39.0271ZM36.177 38.1657L35.7679 37.2532L35.7614 37.2562L36.177 38.1657ZM36.0012 34.4568L35.2712 35.1402L35.2742 35.1434L36.0012 34.4568ZM32.925 31.9607L33.5121 31.1511L33.5095 31.1492L32.925 31.9607ZM29.4446 29.8513L29.7399 28.8959L29.5956 28.8513H29.4446V29.8513ZM29.2336 27.7595L28.6275 26.964L28.6166 26.9726L29.2336 27.7595ZM30.7805 27.7595L30.2707 28.6198L30.2873 28.6296L30.3042 28.6388L30.7805 27.7595ZM31.6067 28.2341L31.0867 29.0883L31.3499 29.2485L31.6576 29.2328L31.6067 28.2341ZM34.8586 26.3181L35.6257 26.9597L35.6302 26.9543L34.8586 26.3181ZM36.4583 23.4353L35.534 23.0534L35.5334 23.055L36.4583 23.4353ZM36.7395 18.5486L36.3096 19.4514L36.3226 19.4576L36.3359 19.4635L36.7395 18.5486ZM35.3157 18.4431L35.2492 17.4453L35.2409 17.4459L35.3157 18.4431ZM32.9778 18.8825L33.2073 19.8558L33.208 19.8557L32.9778 18.8825ZM30.2004 19.7439L29.7814 18.8359L29.3607 19.0301L29.2368 19.4765L30.2004 19.7439ZM26.2805 31.5915L25.3446 31.2393L25.3441 31.2407L26.2805 31.5915ZM23.2922 38.6404L24.1243 39.1951L24.1279 39.1895L23.2922 38.6404ZM22.5188 39.5896L21.978 38.7484L21.971 38.7529L21.9641 38.7575L22.5188 39.5896ZM20.9543 40.0466L21.1386 41.0295L21.1478 41.0277L20.9543 40.0466ZM20.1985 39.5368L21.1402 39.8732L21.1405 39.8724L20.1985 39.5368ZM21.3586 34.3864L20.7586 33.5864L20.7516 33.5917L20.7447 33.5971L21.3586 34.3864ZM22.8352 33.8415L22.519 32.8928L22.5119 32.8952L22.5049 32.8977L22.8352 33.8415ZM23.4329 34.2458L22.456 34.4595L23.0675 37.2551L24.3302 34.6871L23.4329 34.2458ZM28.1614 20.6755L29.1429 20.867L29.5043 19.0148L27.7687 19.7558L28.1614 20.6755ZM21.7454 24.8767L20.9584 24.2597L20.9533 24.2662L20.9483 24.2728L21.7454 24.8767ZM21.5696 27.654L22.5474 27.4445L22.5438 27.4279L22.5397 27.4115L21.5696 27.654ZM20.7434 27.988L19.9805 28.6346L19.9888 28.6442L20.7434 27.988ZM19.5833 23.7341L18.8158 23.093L18.8109 23.0989L18.806 23.1049L19.5833 23.7341ZM23.5911 20.5525L23.0587 19.706L23.0583 19.7062L23.5911 20.5525ZM28.6887 17.9685L29.0264 18.9097L29.5895 18.7077L29.6778 18.1161L28.6887 17.9685ZM28.8118 16.4919L29.7966 16.3181L29.7934 16.3002L29.7896 16.2824L28.8118 16.4919ZM29.5676 16.2458L30.2747 15.5387L30.2625 15.5265L30.2499 15.5148L29.5676 16.2458ZM30.2356 17.3532L29.282 17.0521L28.7207 18.8296L30.5121 18.3143L30.2356 17.3532ZM35.5266 16.281L35.5599 15.2815L35.551 15.2813L35.5266 16.281ZM37.2141 16.8786L37.9053 16.156L37.8921 16.1434L37.8785 16.1312L37.2141 16.8786ZM38.2336 18.4079L37.3532 18.882L37.6575 19.4472L38.298 19.4059L38.2336 18.4079ZM39.095 18.6716L39.8021 17.9645L39.792 17.9544L39.7816 17.9446L39.095 18.6716ZM39.429 19.8142L38.4306 19.7566C38.2673 22.5874 37.2927 24.8429 35.5402 26.5954L36.2473 27.3025L36.9544 28.0096C39.0926 25.8714 40.239 23.1347 40.4273 19.8718L39.429 19.8142ZM36.2473 27.3025L35.5402 26.5954C35.2062 26.9293 34.7274 27.2627 34.0715 27.58L34.5071 28.4802L34.9426 29.3804C35.7399 28.9946 36.4212 28.5428 36.9544 28.0096L36.2473 27.3025ZM34.5071 28.4802L34.0599 27.5858C33.4503 27.8905 33.0391 28.0083 32.7915 28.0284L32.8723 29.0251L32.9531 30.0218C33.5727 29.9716 34.2513 29.7261 34.9543 29.3746L34.5071 28.4802ZM32.8723 29.0251L32.3484 29.8769C35.1246 31.5844 36.8859 33.0377 37.7635 34.225L38.5676 33.6306L39.3718 33.0362C38.2571 31.5281 36.2216 29.9111 33.3962 28.1733L32.8723 29.0251ZM38.5676 33.6306L37.7582 34.2178C38.1266 34.7256 38.218 35.0659 38.218 35.2654H39.218H40.218C40.218 34.4805 39.8759 33.7309 39.377 33.0434L38.5676 33.6306ZM39.218 35.2654H38.218C38.218 35.5948 37.9692 36.281 37.0919 37.4123L37.8821 38.0251L38.6723 38.6379C39.5762 37.4724 40.218 36.3187 40.218 35.2654H39.218ZM37.8821 38.0251L37.0201 38.5321C37.0442 38.573 37.0536 38.5987 37.0569 38.6096C37.0599 38.6195 37.0579 38.617 37.0579 38.6052H38.0579H39.0579C39.0579 38.2022 38.9307 37.8354 38.744 37.5181L37.8821 38.0251ZM38.0579 38.6052H37.0579C37.0579 38.6055 37.0768 38.6538 36.9281 38.7744C36.7495 38.9193 36.4016 39.0981 35.7974 39.2614C34.5955 39.5863 32.7034 39.7673 30.0598 39.7673V40.7673V41.7673C32.7483 41.7673 34.8552 41.5879 36.3193 41.1921C37.0481 40.9951 37.7 40.7235 38.1879 40.3278C38.7056 39.9079 39.0579 39.3255 39.0579 38.6052H38.0579ZM30.0598 40.7673V39.7673C28.9707 39.7673 27.7849 39.7272 26.5017 39.6462L26.4387 40.6443L26.3758 41.6423C27.6941 41.7254 28.9224 41.7673 30.0598 41.7673V40.7673ZM26.4387 40.6443L26.4932 39.6457C25.8916 39.6129 25.5312 39.5322 25.3441 39.4538C25.1622 39.3776 25.3319 39.3938 25.3691 39.6223L24.3821 39.7829L23.3951 39.9436C23.5143 40.6759 24.0678 41.0876 24.5715 41.2986C25.0699 41.5073 25.6968 41.6053 26.3843 41.6428L26.4387 40.6443ZM24.3821 39.7829L25.3627 39.5868C25.322 39.3834 25.3451 38.9574 25.6063 38.2173L24.6633 37.8845L23.7203 37.5517C23.419 38.4054 23.2547 39.245 23.4015 39.979L24.3821 39.7829ZM24.6633 37.8845L25.612 38.2007C25.6368 38.1263 25.6412 38.1638 25.5722 38.2208C25.5369 38.2499 25.4947 38.2735 25.4505 38.2884C25.4077 38.3028 25.3769 38.3044 25.3665 38.3044V37.3044V36.3044C24.9936 36.3044 24.6171 36.416 24.2994 36.6781C23.996 36.9284 23.8187 37.256 23.7146 37.5683L24.6633 37.8845ZM25.3665 37.3044V36.3044C25.3479 36.3044 25.3025 36.3046 25.2487 36.3099C25.226 36.3121 25.1632 36.3186 25.0863 36.3389C25.0488 36.3487 24.974 36.3705 24.8869 36.4147C24.8176 36.4498 24.6225 36.5568 24.4809 36.7927C24.2971 37.099 24.3024 37.4525 24.4322 37.7308C24.5326 37.9459 24.6814 38.065 24.7353 38.1058C24.8534 38.1953 24.9646 38.2365 24.984 38.2439C25.053 38.2705 25.1127 38.2845 25.1282 38.2882C25.2066 38.3069 25.3124 38.3236 25.4012 38.3371C25.607 38.3682 25.9422 38.4135 26.3994 38.4721L26.5266 37.4802L26.6538 36.4883C26.197 36.4297 25.8818 36.3871 25.7008 36.3596C25.5963 36.3438 25.5746 36.3386 25.5915 36.3426C25.5916 36.3426 25.6401 36.3534 25.702 36.3772C25.7177 36.3833 25.8264 36.4233 25.943 36.5116C25.9961 36.5519 26.1444 36.6704 26.2446 36.885C26.3742 37.1628 26.3795 37.5157 26.1959 37.8217C26.0547 38.057 25.8601 38.1636 25.7916 38.1983C25.7052 38.2422 25.6315 38.2635 25.5953 38.273C25.521 38.2926 25.4619 38.2986 25.4438 38.3003C25.3993 38.3047 25.3674 38.3044 25.3665 38.3044V37.3044ZM26.5266 37.4802L26.3973 38.4718C26.2651 38.4546 26.219 38.3955 26.2603 38.4333C26.302 38.4715 26.3836 38.5643 26.4953 38.7505L27.3528 38.2361L28.2103 37.7216C28.0408 37.439 27.844 37.1715 27.6103 36.9577C27.3762 36.7436 27.0577 36.541 26.656 36.4886L26.5266 37.4802ZM27.3528 38.2361L26.5109 38.7757C27.016 39.5637 27.8396 39.9313 28.7474 40.0221L28.8469 39.0271L28.9464 38.032C28.448 37.9822 28.2755 37.8225 28.1947 37.6964L27.3528 38.2361ZM28.8469 39.0271L28.7422 40.0216C29.2304 40.073 29.7762 40.0974 30.3762 40.0974V39.0974V38.0974C29.8278 38.0974 29.3541 38.0749 28.9516 38.0326L28.8469 39.0271ZM30.3762 39.0974V40.0974C32.9429 40.0974 35.0431 39.7832 36.5926 39.0753L36.177 38.1657L35.7614 37.2562C34.5921 37.7904 32.8252 38.0974 30.3762 38.0974V39.0974ZM36.177 38.1657L36.5861 39.0783C37.0353 38.8769 37.4455 38.5927 37.7441 38.1912C38.0515 37.7777 38.1965 37.2983 38.1965 36.7946H37.1965H36.1965C36.1965 36.9003 36.1716 36.9541 36.1392 36.9977C36.0979 37.0532 35.9984 37.1499 35.7679 37.2532L36.177 38.1657ZM37.1965 36.7946H38.1965C38.1965 35.7055 37.5968 34.6897 36.7282 33.7701L36.0012 34.4568L35.2742 35.1434C35.9994 35.9113 36.1965 36.4541 36.1965 36.7946H37.1965ZM36.0012 34.4568L36.7312 33.7733C36.1425 33.1444 35.0445 32.2624 33.5121 31.1511L32.925 31.9607L32.338 32.7702C33.8759 33.8855 34.8287 34.6675 35.2712 35.1402L36.0012 34.4568ZM32.925 31.9607L33.5095 31.1492C32.66 30.5373 31.9275 30.0432 31.3164 29.6728C30.7218 29.3125 30.1844 29.0333 29.7399 28.8959L29.4446 29.8513L29.1493 30.8067C29.3493 30.8685 29.7142 31.0405 30.2798 31.3832C30.8288 31.716 31.5143 32.177 32.3406 32.7721L32.925 31.9607ZM29.4446 29.8513V28.8513C28.8921 28.8513 28.5965 28.7964 28.4732 28.7508C28.4178 28.7303 28.4682 28.7369 28.5396 28.8161C28.6301 28.9166 28.6868 29.0595 28.6868 29.2009H27.6868H26.6868C26.6868 29.5591 26.8167 29.8917 27.0537 30.1548C27.2715 30.3966 27.5417 30.5387 27.7792 30.6266C28.2419 30.7977 28.8252 30.8513 29.4446 30.8513V29.8513ZM27.6868 29.2009H28.6868C28.6868 29.4338 28.5992 29.5883 28.5872 29.6103C28.5633 29.6537 28.5469 29.6712 28.5587 29.6568C28.5809 29.6295 28.6395 29.5657 28.7552 29.4579C28.9816 29.2469 29.3419 28.9453 29.8507 28.5464L29.2336 27.7595L28.6166 26.9726C28.0941 27.3822 27.681 27.7252 27.3918 27.9947C27.2497 28.1271 27.1149 28.2625 27.0082 28.3934C26.9555 28.4581 26.8908 28.5445 26.8347 28.6465C26.7904 28.727 26.6868 28.9299 26.6868 29.2009H27.6868ZM29.2336 27.7595L29.8397 28.5549C29.9029 28.5068 29.9439 28.4872 29.9619 28.4801C29.9778 28.4739 29.9734 28.4782 29.9543 28.4782V27.4782V26.4782C29.4401 26.4782 28.9922 26.6863 28.6276 26.9641L29.2336 27.7595ZM29.9543 27.4782V28.4782C29.9391 28.4782 29.9565 28.4755 30.0144 28.4952C30.0723 28.5149 30.1571 28.5525 30.2707 28.6198L30.7805 27.7595L31.2903 26.8992C30.8996 26.6677 30.4426 26.4782 29.9543 26.4782V27.4782ZM30.7805 27.7595L30.3042 28.6388C30.5709 28.7832 30.8317 28.9331 31.0867 29.0883L31.6067 28.2341L32.1266 27.3799C31.8426 27.207 31.5526 27.0404 31.2568 26.8802L30.7805 27.7595ZM31.6067 28.2341L31.6576 29.2328C33.1774 29.1553 34.4979 28.3078 35.6257 26.9597L34.8586 26.3181L34.0916 25.6765C33.1803 26.7658 32.3329 27.1957 31.5557 27.2354L31.6067 28.2341ZM34.8586 26.3181L35.6302 26.9543C36.27 26.1784 36.8484 25.1159 37.3831 23.8156L36.4583 23.4353L35.5334 23.055C35.0369 24.2624 34.5489 25.1219 34.0871 25.6819L34.8586 26.3181ZM36.4583 23.4353L37.3825 23.8172C37.9942 22.3367 38.3372 20.9925 38.3372 19.8142H37.3372H36.3372C36.3372 20.628 36.0942 21.6979 35.534 23.0534L36.4583 23.4353ZM37.3372 19.8142H38.3372C38.3372 18.9893 38.0814 18.0476 37.1431 17.6336L36.7395 18.5486L36.3359 19.4635C36.3258 19.4591 36.3093 19.449 36.2939 19.4336C36.2792 19.419 36.2777 19.4116 36.2835 19.4238C36.2989 19.4564 36.3372 19.5687 36.3372 19.8142H37.3372ZM36.7395 18.5486L37.1694 17.6457C36.8808 17.5082 36.5555 17.458 36.2728 17.437C35.9724 17.4148 35.6275 17.4201 35.2492 17.4453L35.3157 18.4431L35.3822 19.4409C35.707 19.4192 35.9509 19.4187 36.1251 19.4316C36.317 19.4458 36.3522 19.4717 36.3096 19.4514L36.7395 18.5486ZM35.3157 18.4431L35.2409 17.4459C34.6856 17.4875 33.838 17.6514 32.7476 17.9094L32.9778 18.8825L33.208 19.8557C34.2972 19.598 35.0083 19.4689 35.3905 19.4403L35.3157 18.4431ZM32.9778 18.8825L32.7482 17.9092C31.488 18.2065 30.4837 18.5117 29.7814 18.8359L30.2004 19.7439L30.6195 20.6518C31.1359 20.4135 31.9832 20.1445 33.2073 19.8558L32.9778 18.8825ZM30.2004 19.7439L29.2368 19.4765C28.2384 23.0755 26.9417 26.996 25.3446 31.2393L26.2805 31.5915L27.2164 31.9438C28.8303 27.6558 30.1468 23.6779 31.164 20.0112L30.2004 19.7439ZM26.2805 31.5915L25.3441 31.2407C24.6198 33.1739 24.0131 34.7163 23.5229 35.8726C23.0227 37.0525 22.67 37.7663 22.4565 38.0912L23.2922 38.6404L24.1279 39.1895C24.4535 38.6941 24.8684 37.8229 25.3643 36.6532C25.8702 35.4599 26.4881 33.888 27.217 31.9423L26.2805 31.5915ZM23.2922 38.6404L22.4602 38.0857C22.2936 38.3355 22.1609 38.5176 22.06 38.6415C22.0097 38.7031 21.9742 38.7419 21.9523 38.7638C21.9265 38.7896 21.9363 38.7752 21.978 38.7484L22.5188 39.5896L23.0596 40.4307C23.2828 40.2872 23.4713 40.0757 23.6104 39.9048C23.7673 39.7123 23.9393 39.4725 24.1243 39.1951L23.2922 38.6404ZM22.5188 39.5896L21.9641 38.7575C21.9941 38.7375 21.9375 38.7769 21.6891 38.8494C21.4682 38.9139 21.1619 38.9864 20.7609 39.0655L20.9543 40.0466L21.1478 41.0277C21.5789 40.9427 21.9493 40.857 22.2499 40.7692C22.523 40.6894 22.8326 40.5822 23.0735 40.4216L22.5188 39.5896ZM20.9543 40.0466L20.7701 39.0637C20.6536 39.0856 20.5682 39.0966 20.509 39.1011C20.4451 39.106 20.4371 39.1012 20.4658 39.1054C20.4814 39.1077 20.6311 39.1283 20.7939 39.2606C20.8833 39.3332 20.9695 39.4344 21.0302 39.5646C21.0904 39.6938 21.1106 39.8196 21.1106 39.9236H20.1106H19.1106C19.1106 40.2594 19.2546 40.5869 19.5327 40.8128C19.7659 41.0023 20.021 41.0617 20.1772 41.0845C20.4893 41.13 20.8358 41.0863 21.1386 41.0295L20.9543 40.0466ZM20.1106 39.9236H21.1106C21.1106 39.9513 21.1085 39.9698 21.1075 39.9771C21.1065 39.9847 21.1061 39.9854 21.1077 39.9782C21.1113 39.9626 21.1204 39.9287 21.1402 39.8732L20.1985 39.5368L19.2567 39.2005C19.1868 39.3964 19.1106 39.6554 19.1106 39.9236H20.1106ZM20.1985 39.5368L21.1405 39.8724C21.8113 37.9896 22.2004 36.4655 22.2004 35.3884H21.2004H20.2004C20.2004 36.0926 19.9217 37.3341 19.2565 39.2012L20.1985 39.5368ZM21.2004 35.3884H22.2004C22.2004 35.1157 22.2133 34.9458 22.2278 34.8544C22.2351 34.8078 22.238 34.8141 22.2241 34.8507C22.2165 34.8706 22.1989 34.9129 22.1652 34.9659C22.132 35.0181 22.0716 35.0988 21.9726 35.1758L21.3586 34.3864L20.7447 33.5971C20.5069 33.782 20.401 34.0181 20.3547 34.1398C20.3013 34.2803 20.2712 34.4221 20.2522 34.5425C20.2139 34.7851 20.2004 35.0751 20.2004 35.3884H21.2004ZM21.3586 34.3864L21.9586 35.1864C21.8942 35.2348 21.8399 35.2623 21.835 35.2648C21.8265 35.2693 21.82 35.2724 21.8165 35.2741C21.8129 35.2758 21.8107 35.2769 21.8103 35.277C21.8097 35.2773 21.8126 35.276 21.8202 35.2728C21.8275 35.2697 21.8374 35.2656 21.8504 35.2604C21.9045 35.2386 21.9892 35.2063 22.1092 35.162C22.3472 35.0741 22.6983 34.9489 23.1656 34.7854L22.8352 33.8415L22.5049 32.8977C22.0346 33.0623 21.6708 33.1919 21.4167 33.2857C21.2906 33.3322 21.1849 33.3724 21.1042 33.4048C21.0646 33.4207 21.0227 33.4381 20.9839 33.4557C20.9804 33.4573 20.8662 33.5058 20.7586 33.5864L21.3586 34.3864ZM22.8352 33.8415L23.1514 34.7902C23.1361 34.7953 22.9097 34.8596 22.6616 34.6918C22.4524 34.5502 22.4385 34.3798 22.456 34.4595L23.4329 34.2458L24.4098 34.0321C24.3452 33.7368 24.1907 33.3115 23.7822 33.0352C23.3349 32.7326 22.8507 32.7823 22.519 32.8928L22.8352 33.8415ZM23.4329 34.2458L24.3302 34.6871C25.3982 32.5152 26.4281 29.9341 27.4226 26.9507L26.4739 26.6345L25.5252 26.3183C24.5509 29.2412 23.5535 31.7343 22.5355 33.8046L23.4329 34.2458ZM26.4739 26.6345L27.4226 26.9507C28.2709 24.4058 28.8493 22.3717 29.1429 20.867L28.1614 20.6755L27.1799 20.484C26.911 21.8622 26.3644 23.8006 25.5252 26.3183L26.4739 26.6345ZM28.1614 20.6755L27.7687 19.7558C24.5937 21.1115 22.265 22.5931 20.9584 24.2597L21.7454 24.8767L22.5323 25.4937C23.5226 24.2306 25.4713 22.9114 28.554 21.5952L28.1614 20.6755ZM21.7454 24.8767L20.9483 24.2728C20.5286 24.8268 20.3059 25.465 20.3059 26.1599H21.3059H22.3059C22.3059 25.9172 22.3762 25.7 22.5425 25.4805L21.7454 24.8767ZM21.3059 26.1599H20.3059C20.3059 26.5898 20.4244 27.1965 20.5994 27.8966L21.5696 27.654L22.5397 27.4115C22.3632 26.7053 22.3059 26.3159 22.3059 26.1599H21.3059ZM21.5696 27.654L20.5918 27.8636C20.6049 27.9249 20.6129 27.9724 20.6175 28.0075C20.6222 28.0435 20.6223 28.0591 20.6223 28.0583H21.6223H22.6223C22.6223 27.8537 22.5897 27.6421 22.5474 27.4445L21.5696 27.654ZM21.6223 28.0583H20.6223C20.6223 28.058 20.6223 28.0513 20.6235 28.0393C20.6247 28.0274 20.6272 28.0078 20.6331 27.9821C20.6443 27.933 20.6717 27.8438 20.7399 27.7441C20.8125 27.6379 20.9188 27.5392 21.0558 27.4724C21.1881 27.408 21.3099 27.3923 21.3938 27.3923V28.3923V29.3923C21.7503 29.3923 22.1396 29.2402 22.3905 28.8735C22.5947 28.575 22.6223 28.2525 22.6223 28.0583H21.6223ZM21.3938 28.3923V27.3923C21.5266 27.3923 21.6036 27.4382 21.6097 27.4419C21.6131 27.444 21.6041 27.4388 21.5833 27.4202C21.5626 27.4017 21.5341 27.3733 21.498 27.3318L20.7434 27.988L19.9888 28.6442C20.2723 28.9702 20.7437 29.3923 21.3938 29.3923V28.3923ZM20.7434 27.988L21.5063 27.3415C20.9429 26.6766 20.5471 26.1242 20.2969 25.6789C20.0363 25.215 19.9856 24.9578 19.9856 24.8591H18.9856H17.9856C17.9856 25.4635 18.2279 26.0794 18.5532 26.6585C18.889 27.2561 19.3721 27.9166 19.9805 28.6345L20.7434 27.988ZM18.9856 24.8591H19.9856C19.9856 24.9671 19.9513 24.9794 20.0181 24.8536C20.0769 24.743 20.184 24.5813 20.3605 24.3633L19.5833 23.7341L18.806 23.1049C18.584 23.3791 18.3923 23.651 18.2519 23.9153C18.1195 24.1645 17.9856 24.4933 17.9856 24.8591H18.9856ZM19.5833 23.7341L20.3507 24.3752C21.0223 23.5714 22.2517 22.5775 24.1239 21.3987L23.5911 20.5525L23.0583 19.7062C21.1336 20.918 19.6911 22.0453 18.8158 23.093L19.5833 23.7341ZM23.5911 20.5525L24.1235 21.399C25.9452 20.2532 27.5783 19.4293 29.0264 18.9097L28.6887 17.9685L28.351 17.0272C26.7288 17.6092 24.9635 18.508 23.0587 19.706L23.5911 20.5525ZM28.6887 17.9685L29.6778 18.1161C29.7379 17.7132 29.7809 17.3701 29.8039 17.0935C29.8243 16.8495 29.8391 16.5592 29.7966 16.3181L28.8118 16.4919L27.827 16.6657C27.8203 16.6278 27.8244 16.6261 27.8239 16.6878C27.8234 16.7413 27.8198 16.8196 27.8108 16.9274C27.7929 17.143 27.7567 17.4386 27.6997 17.8209L28.6887 17.9685ZM28.8118 16.4919L29.7896 16.2824C29.7712 16.1965 29.8405 16.3915 29.6885 16.6418C29.6019 16.7844 29.4763 16.8866 29.3464 16.9443C29.2296 16.9962 29.1387 16.9997 29.1106 16.9997V15.9997V14.9997C28.7827 14.9997 28.2786 15.1102 27.979 15.6038C27.7274 16.0181 27.7821 16.4592 27.834 16.7014L28.8118 16.4919ZM29.1106 15.9997V16.9997C28.9626 16.9997 28.8691 16.9534 28.8474 16.9417C28.8252 16.9297 28.8377 16.9325 28.8853 16.9769L29.5676 16.2458L30.2499 15.5148C30.0315 15.3109 29.6367 14.9997 29.1106 14.9997V15.9997ZM29.5676 16.2458L28.8605 16.9529C29.0946 17.187 29.2145 17.342 29.265 17.4259C29.2894 17.4663 29.2778 17.4579 29.265 17.4081C29.2515 17.3556 29.2283 17.2221 29.282 17.0521L30.2356 17.3532L31.1892 17.6544C31.3608 17.1109 31.1218 16.6319 30.9776 16.3929C30.8055 16.1076 30.5563 15.8202 30.2747 15.5387L29.5676 16.2458ZM30.2356 17.3532L30.5121 18.3143C33.096 17.5709 34.7173 17.2615 35.5022 17.2807L35.5266 16.281L35.551 15.2813C34.4141 15.2535 32.508 15.659 29.9591 16.3922L30.2356 17.3532ZM35.5266 16.281L35.4933 17.2804C36.0223 17.2981 36.342 17.4414 36.5497 17.626L37.2141 16.8786L37.8785 16.1312C37.2425 15.5659 36.4372 15.3108 35.5599 15.2815L35.5266 16.281ZM37.2141 16.8786L36.5229 17.6013C36.6677 17.7397 36.9446 18.1232 37.3532 18.882L38.2336 18.4079L39.1141 17.9338C38.7024 17.1692 38.2996 16.5331 37.9053 16.156L37.2141 16.8786ZM38.2336 18.4079L38.298 19.4059C38.384 19.4003 38.4223 19.4105 38.4287 19.4125C38.4316 19.4134 38.4289 19.4128 38.4231 19.4094C38.4171 19.406 38.4118 19.4019 38.4083 19.3986L39.095 18.6716L39.7816 17.9446C39.3198 17.5084 38.7343 17.3735 38.1693 17.41L38.2336 18.4079ZM39.095 18.6716L38.3879 19.3787C38.3557 19.3466 38.4469 19.3973 38.43 19.7688L39.429 19.8142L40.4279 19.8596C40.4579 19.1998 40.3264 18.4888 39.8021 17.9645L39.095 18.6716Z" fill="#FF477B" mask="url(#path-4-outside-2_57_7)"/>
<defs>
<linearGradient id="paint0_linear_57_7" x1="46.5" y1="50" x2="4.25" y2="1.75" gradientUnits="userSpaceOnUse">
<stop stop-color="#FFB4C9"/>
<stop offset="1" stop-color="#FF477B"/>
</linearGradient>
</defs>
</svg>
