<svg width="97" height="100" viewBox="0 0 97 100" fill="none" xmlns="http://www.w3.org/2000/svg">
<path d="M67.1822 5.24V13.08H16.587L64.4662 2.96C65.863 2.68 67.1822 3.78 67.1822 5.24Z" fill="#949494"/>
<path d="M65.8436 24.4C62.0218 25.54 58.394 27.24 54.5722 28.38C47.1032 30.58 39.188 30.52 31.4862 31.56C23.7844 32.6 15.7528 35.08 10.6312 41.1C3.977 48.94 4.0352 61.32 9.1374 70.32C14.2396 79.32 23.474 85.16 33.1546 88.16C41.1474 90.64 49.7416 91.38 57.909 89.62C66.0958 87.86 73.8364 83.54 79.2296 76.96C83.0126 72.36 85.554 66.84 87.6686 61.24C90.3652 54.08 92.441 46.34 91.1024 38.78C88.7938 25.7 77.4254 20.94 65.8436 24.4Z" fill="#D3D3D3"/>
<path d="M83.2066 21.26C84.1602 21.26 84.9332 20.4631 84.9332 19.48C84.9332 18.4969 84.1602 17.7 83.2066 17.7C82.253 17.7 81.48 18.4969 81.48 19.48C81.48 20.4631 82.253 21.26 83.2066 21.26Z" fill="#808080"/>
<path d="M19.5746 21.78C20.5282 21.78 21.3012 20.9831 21.3012 20C21.3012 19.0169 20.5282 18.22 19.5746 18.22C18.621 18.22 17.848 19.0169 17.848 20C17.848 20.9831 18.621 21.78 19.5746 21.78Z" fill="#808080"/>
<path d="M62.4292 98C63.3828 98 64.1558 97.2031 64.1558 96.22C64.1558 95.2369 63.3828 94.44 62.4292 94.44C61.4757 94.44 60.7026 95.2369 60.7026 96.22C60.7026 97.2031 61.4757 98 62.4292 98Z" fill="#808080"/>
<path d="M58.006 53.62L48.2866 63.64C47.821 64.12 47.0838 64.12 46.6182 63.64L36.8988 53.62C34.1052 50.74 34.1052 46.08 36.8988 43.2C39.6924 40.32 44.2126 40.32 47.0062 43.2C47.1614 43.36 47.3166 43.52 47.4524 43.7C47.5882 43.52 47.724 43.36 47.8986 43.2C50.6922 40.32 55.2124 40.32 58.006 43.2C60.7996 46.08 60.7996 50.74 58.006 53.62Z" fill="#949494"/>
<path d="M76.0674 12.16H68.0746V5.23999C68.0746 4.25999 67.6478 3.33999 66.9106 2.71999C66.1734 2.09999 65.2228 1.85999 64.2916 2.05999L16.4124 12.18C16.393 12.18 16.393 12.2 16.393 12.2C15.9856 12.28 15.6946 12.64 15.6946 13.08V89.64C15.6946 91.42 17.1108 92.88 18.8374 92.88H76.0674C77.794 92.88 79.2102 91.42 79.2102 89.64V15.4C79.2102 13.62 77.794 12.16 76.0674 12.16ZM64.6408 3.87999C65.0482 3.79999 65.4556 3.89999 65.766 4.15999C66.0764 4.41999 66.2704 4.81999 66.2704 5.23999V12.14H25.4722L64.6408 3.87999ZM77.4254 89.64C77.4254 90.42 76.824 91.04 76.0674 91.04H18.8374C18.0808 91.04 17.4794 90.42 17.4794 89.64V14H76.0674C76.824 14 77.4254 14.62 77.4254 15.4V89.64Z" fill="#808080"/>
<path d="M68.288 28.14C65.6108 28.14 63.438 25.9 63.438 23.14C63.438 22.38 62.8366 21.76 62.0994 21.76H32.8054C32.0682 21.76 31.4668 22.38 31.4668 23.14C31.4668 25.9 29.294 28.14 26.6168 28.14C25.8796 28.14 25.2782 28.76 25.2782 29.52V75.52C25.2782 76.28 25.8796 76.9 26.6168 76.9C29.294 76.9 31.4668 79.14 31.4668 81.9C31.4668 82.66 32.0682 83.28 32.8054 83.28H62.0994C62.8366 83.28 63.438 82.66 63.438 81.9C63.438 79.14 65.6108 76.9 68.288 76.9C69.0252 76.9 69.6266 76.28 69.6266 75.52V29.52C69.646 28.76 69.0446 28.14 68.288 28.14ZM66.9494 74.26C63.8648 74.84 61.4204 77.34 60.8772 80.52H34.0276C33.465 77.34 31.04 74.82 27.9554 74.26V30.78C31.04 30.2 33.4844 27.7 34.0276 24.52H60.8772C61.4398 27.7 63.8648 30.22 66.9494 30.78V74.26Z" fill="#808080"/>
<path d="M52.962 39.66C52.9426 39.66 52.9426 39.66 52.962 39.66C50.925 39.66 48.985 40.4 47.4524 41.74C45.9198 40.4 43.9992 39.66 41.9622 39.66C39.6924 39.66 37.5584 40.58 35.9676 42.22C34.3574 43.88 33.4844 46.08 33.4844 48.42C33.4844 50.76 34.3768 52.96 35.9676 54.6L45.687 64.62C46.172 65.12 46.8122 65.38 47.4718 65.38C48.112 65.38 48.7522 65.12 49.2566 64.62L58.976 54.6C60.5862 52.94 61.4592 50.74 61.4592 48.4C61.4592 46.06 60.5668 43.86 58.976 42.2C57.3464 40.56 55.2124 39.66 52.962 39.66ZM57.0554 52.64L47.4524 62.54L37.8494 52.64C36.763 51.52 36.1422 50.02 36.1422 48.42C36.1422 46.82 36.7436 45.32 37.8494 44.18C38.9358 43.04 40.4296 42.44 41.9428 42.42C43.4948 42.42 44.9498 43.04 46.0556 44.18C46.172 44.32 46.2884 44.44 46.4048 44.58C46.9092 45.22 47.9762 45.22 48.4806 44.58C48.597 44.44 48.694 44.32 48.8298 44.18C49.9356 43.04 51.3906 42.42 52.9426 42.42C54.4558 42.5 55.9496 43.04 57.0554 44.18C58.1612 45.32 58.7626 46.82 58.7626 48.42C58.7432 50.02 58.1418 51.52 57.0554 52.64Z" fill="#808080"/>
</svg>
