<svg width="102" height="28" viewBox="0 0 102 28" fill="none" xmlns="http://www.w3.org/2000/svg">
<path d="M32.25 15.12H34.49V16.44H30.54V9.42H32.25V15.12ZM37.8456 16.52C37.299 16.52 36.8056 16.4033 36.3656 16.17C35.9323 15.9367 35.589 15.6033 35.3356 15.17C35.089 14.7367 34.9656 14.23 34.9656 13.65C34.9656 13.0767 35.0923 12.5733 35.3456 12.14C35.599 11.7 35.9456 11.3633 36.3856 11.13C36.8256 10.8967 37.319 10.78 37.8656 10.78C38.4123 10.78 38.9056 10.8967 39.3456 11.13C39.7856 11.3633 40.1323 11.7 40.3856 12.14C40.639 12.5733 40.7656 13.0767 40.7656 13.65C40.7656 14.2233 40.6356 14.73 40.3756 15.17C40.1223 15.6033 39.7723 15.9367 39.3256 16.17C38.8856 16.4033 38.3923 16.52 37.8456 16.52ZM37.8456 15.04C38.1723 15.04 38.449 14.92 38.6756 14.68C38.909 14.44 39.0256 14.0967 39.0256 13.65C39.0256 13.2033 38.9123 12.86 38.6856 12.62C38.4656 12.38 38.1923 12.26 37.8656 12.26C37.5323 12.26 37.2556 12.38 37.0356 12.62C36.8156 12.8533 36.7056 13.1967 36.7056 13.65C36.7056 14.0967 36.8123 14.44 37.0256 14.68C37.2456 14.92 37.519 15.04 37.8456 15.04ZM44.1828 14.84L45.3928 10.86H47.2128L45.2328 16.44H43.1228L41.1428 10.86H42.9728L44.1828 14.84ZM53.1926 13.56C53.1926 13.72 53.1826 13.8867 53.1626 14.06H49.2926C49.3193 14.4067 49.4293 14.6733 49.6226 14.86C49.8226 15.04 50.0659 15.13 50.3526 15.13C50.7793 15.13 51.0759 14.95 51.2426 14.59H53.0626C52.9693 14.9567 52.7993 15.2867 52.5526 15.58C52.3126 15.8733 52.0093 16.1033 51.6426 16.27C51.2759 16.4367 50.8659 16.52 50.4126 16.52C49.8659 16.52 49.3793 16.4033 48.9526 16.17C48.5259 15.9367 48.1926 15.6033 47.9526 15.17C47.7126 14.7367 47.5926 14.23 47.5926 13.65C47.5926 13.07 47.7093 12.5633 47.9426 12.13C48.1826 11.6967 48.5159 11.3633 48.9426 11.13C49.3693 10.8967 49.8593 10.78 50.4126 10.78C50.9526 10.78 51.4326 10.8933 51.8526 11.12C52.2726 11.3467 52.5993 11.67 52.8326 12.09C53.0726 12.51 53.1926 13 53.1926 13.56ZM51.4426 13.11C51.4426 12.8167 51.3426 12.5833 51.1426 12.41C50.9426 12.2367 50.6926 12.15 50.3926 12.15C50.1059 12.15 49.8626 12.2333 49.6626 12.4C49.4693 12.5667 49.3493 12.8033 49.3026 13.11H51.4426ZM57.7347 12.85C57.988 12.89 58.218 12.9933 58.4247 13.16C58.638 13.3267 58.8047 13.5333 58.9247 13.78C59.0514 14.0267 59.1147 14.29 59.1147 14.57C59.1147 14.9233 59.0247 15.2433 58.8447 15.53C58.6647 15.81 58.4014 16.0333 58.0547 16.2C57.7147 16.36 57.3114 16.44 56.8447 16.44H54.2447V9.47H56.7447C57.218 9.47 57.6214 9.55 57.9547 9.71C58.288 9.86333 58.538 10.0733 58.7047 10.34C58.8714 10.6067 58.9547 10.9067 58.9547 11.24C58.9547 11.6533 58.8414 11.9967 58.6147 12.27C58.3947 12.5367 58.1014 12.73 57.7347 12.85ZM55.1547 12.48H56.6847C57.1114 12.48 57.4414 12.38 57.6747 12.18C57.908 11.98 58.0247 11.7033 58.0247 11.35C58.0247 10.9967 57.908 10.72 57.6747 10.52C57.4414 10.32 57.1047 10.22 56.6647 10.22H55.1547V12.48ZM56.7647 15.69C57.218 15.69 57.5714 15.5833 57.8247 15.37C58.078 15.1567 58.2047 14.86 58.2047 14.48C58.2047 14.0933 58.0714 13.79 57.8047 13.57C57.538 13.3433 57.1814 13.23 56.7347 13.23H55.1547V15.69H56.7647ZM62.7675 16.53C62.2542 16.53 61.7875 16.4133 61.3675 16.18C60.9542 15.9467 60.6275 15.6167 60.3875 15.19C60.1542 14.7567 60.0375 14.2567 60.0375 13.69C60.0375 13.13 60.1575 12.6367 60.3975 12.21C60.6442 11.7767 60.9775 11.4467 61.3975 11.22C61.8175 10.9867 62.2875 10.87 62.8075 10.87C63.3275 10.87 63.7975 10.9867 64.2175 11.22C64.6375 11.4467 64.9675 11.7733 65.2075 12.2C65.4542 12.6267 65.5775 13.1233 65.5775 13.69C65.5775 14.2567 65.4508 14.7567 65.1975 15.19C64.9508 15.6167 64.6142 15.9467 64.1875 16.18C63.7608 16.4133 63.2875 16.53 62.7675 16.53ZM62.7675 15.73C63.0942 15.73 63.4008 15.6533 63.6875 15.5C63.9742 15.3467 64.2042 15.1167 64.3775 14.81C64.5575 14.5033 64.6475 14.13 64.6475 13.69C64.6475 13.25 64.5608 12.8767 64.3875 12.57C64.2142 12.2633 63.9875 12.0367 63.7075 11.89C63.4275 11.7367 63.1242 11.66 62.7975 11.66C62.4642 11.66 62.1575 11.7367 61.8775 11.89C61.6042 12.0367 61.3842 12.2633 61.2175 12.57C61.0508 12.8767 60.9675 13.25 60.9675 13.69C60.9675 14.1367 61.0475 14.5133 61.2075 14.82C61.3742 15.1267 61.5942 15.3567 61.8675 15.51C62.1408 15.6567 62.4408 15.73 62.7675 15.73ZM69.164 16.53C68.6507 16.53 68.184 16.4133 67.764 16.18C67.3507 15.9467 67.024 15.6167 66.784 15.19C66.5507 14.7567 66.434 14.2567 66.434 13.69C66.434 13.13 66.554 12.6367 66.794 12.21C67.0407 11.7767 67.374 11.4467 67.794 11.22C68.214 10.9867 68.684 10.87 69.204 10.87C69.724 10.87 70.194 10.9867 70.614 11.22C71.034 11.4467 71.364 11.7733 71.604 12.2C71.8507 12.6267 71.974 13.1233 71.974 13.69C71.974 14.2567 71.8473 14.7567 71.594 15.19C71.3473 15.6167 71.0107 15.9467 70.584 16.18C70.1573 16.4133 69.684 16.53 69.164 16.53ZM69.164 15.73C69.4907 15.73 69.7973 15.6533 70.084 15.5C70.3707 15.3467 70.6007 15.1167 70.774 14.81C70.954 14.5033 71.044 14.13 71.044 13.69C71.044 13.25 70.9573 12.8767 70.784 12.57C70.6107 12.2633 70.384 12.0367 70.104 11.89C69.824 11.7367 69.5207 11.66 69.194 11.66C68.8607 11.66 68.554 11.7367 68.274 11.89C68.0007 12.0367 67.7807 12.2633 67.614 12.57C67.4473 12.8767 67.364 13.25 67.364 13.69C67.364 14.1367 67.444 14.5133 67.604 14.82C67.7707 15.1267 67.9907 15.3567 68.264 15.51C68.5373 15.6567 68.8373 15.73 69.164 15.73ZM76.2305 16.44L74.0805 14.02V16.44H73.1705V9.04H74.0805V13.39L76.1905 10.96H77.4605L74.8805 13.69L77.4705 16.44H76.2305ZM78.787 10.07C78.6136 10.07 78.467 10.01 78.347 9.89C78.227 9.77 78.167 9.62333 78.167 9.45C78.167 9.27666 78.227 9.13 78.347 9.01C78.467 8.89 78.6136 8.83 78.787 8.83C78.9536 8.83 79.0936 8.89 79.207 9.01C79.327 9.13 79.387 9.27666 79.387 9.45C79.387 9.62333 79.327 9.77 79.207 9.89C79.0936 10.01 78.9536 10.07 78.787 10.07ZM79.227 10.96V16.44H78.317V10.96H79.227ZM83.4479 10.86C84.1146 10.86 84.6546 11.0633 85.0679 11.47C85.4812 11.87 85.6879 12.45 85.6879 13.21V16.44H84.7879V13.34C84.7879 12.7933 84.6512 12.3767 84.3779 12.09C84.1046 11.7967 83.7312 11.65 83.2579 11.65C82.7779 11.65 82.3946 11.8 82.1079 12.1C81.8279 12.4 81.6879 12.8367 81.6879 13.41V16.44H80.7779V10.96H81.6879V11.74C81.8679 11.46 82.1112 11.2433 82.4179 11.09C82.7312 10.9367 83.0746 10.86 83.4479 10.86ZM89.4344 10.87C89.9077 10.87 90.321 10.9733 90.6744 11.18C91.0344 11.3867 91.301 11.6467 91.4744 11.96V10.96H92.3944V16.56C92.3944 17.06 92.2877 17.5033 92.0744 17.89C91.861 18.2833 91.5544 18.59 91.1544 18.81C90.761 19.03 90.301 19.14 89.7744 19.14C89.0544 19.14 88.4544 18.97 87.9744 18.63C87.4944 18.29 87.211 17.8267 87.1244 17.24H88.0244C88.1244 17.5733 88.331 17.84 88.6444 18.04C88.9577 18.2467 89.3344 18.35 89.7744 18.35C90.2744 18.35 90.681 18.1933 90.9944 17.88C91.3144 17.5667 91.4744 17.1267 91.4744 16.56V15.41C91.2944 15.73 91.0277 15.9967 90.6744 16.21C90.321 16.4233 89.9077 16.53 89.4344 16.53C88.9477 16.53 88.5044 16.41 88.1044 16.17C87.711 15.93 87.401 15.5933 87.1744 15.16C86.9477 14.7267 86.8344 14.2333 86.8344 13.68C86.8344 13.12 86.9477 12.63 87.1744 12.21C87.401 11.7833 87.711 11.4533 88.1044 11.22C88.5044 10.9867 88.9477 10.87 89.4344 10.87ZM91.4744 13.69C91.4744 13.2767 91.391 12.9167 91.2244 12.61C91.0577 12.3033 90.831 12.07 90.5444 11.91C90.2644 11.7433 89.9544 11.66 89.6144 11.66C89.2744 11.66 88.9644 11.74 88.6844 11.9C88.4044 12.06 88.181 12.2933 88.0144 12.6C87.8477 12.9067 87.7644 13.2667 87.7644 13.68C87.7644 14.1 87.8477 14.4667 88.0144 14.78C88.181 15.0867 88.4044 15.3233 88.6844 15.49C88.9644 15.65 89.2744 15.73 89.6144 15.73C89.9544 15.73 90.2644 15.65 90.5444 15.49C90.831 15.3233 91.0577 15.0867 91.2244 14.78C91.391 14.4667 91.4744 14.1033 91.4744 13.69Z" fill="#D9594C"/>
<g clip-path="url(#clip0_3_50)">
<path d="M13.6 27.2C21.1111 27.2 27.2 21.1111 27.2 13.6C27.2 6.08896 21.1111 0 13.6 0C6.08893 0 0 6.08896 0 13.6C0 21.1111 6.08893 27.2 13.6 27.2Z" fill="#D9594C"/>
<path fill-rule="evenodd" clip-rule="evenodd" d="M10.7077 8.75162C9.85207 8.75162 8.99753 9.07801 8.34473 9.73194C8.01164 10.0652 7.75293 10.4653 7.58562 10.9058C7.41831 11.3463 7.3462 11.8172 7.37403 12.2876C6.79887 12.4593 6.35573 12.6497 6.0571 12.886C5.88823 13.0203 5.7562 13.175 5.69613 13.3677C5.63663 13.5603 5.67347 13.7802 5.78113 13.9519C5.99703 14.2965 6.409 14.5152 6.9802 14.7226C7.55027 14.9294 8.29033 15.104 9.1749 15.2417L13.3926 19.1902C13.4451 19.2394 13.5144 19.2667 13.5864 19.2667H13.5955C13.6672 19.2666 13.7363 19.2393 13.7887 19.1902L18.0081 15.2405C18.7918 15.1181 19.4984 14.9657 20.0634 14.7764C20.5366 14.6177 20.8941 14.4477 21.1491 14.2431C21.4041 14.0391 21.5741 13.7542 21.5231 13.4555C21.4721 13.1563 21.2477 12.937 20.944 12.75C20.6652 12.5783 20.2872 12.427 19.8254 12.2887C19.8472 11.8173 19.7706 11.3465 19.6004 10.9063C19.4303 10.4661 19.1703 10.0662 18.8371 9.73194C18.8111 9.70605 18.7803 9.68546 18.7465 9.67131C18.7453 9.6713 18.7442 9.6713 18.7431 9.67131C17.4324 8.44561 15.3878 8.45298 14.11 9.73308L13.5909 10.2544L13.0707 9.73308C12.761 9.42188 12.3927 9.17501 11.9872 9.00676C11.5816 8.83851 11.1468 8.75218 10.7077 8.75272V8.75162ZM10.7077 9.31147C11.4161 9.31147 12.1244 9.58518 12.6701 10.1314L13.3903 10.8534C13.4435 10.9065 13.5155 10.9363 13.5906 10.9363C13.6658 10.9363 13.7378 10.9065 13.791 10.8534L14.5118 10.1314C14.7683 9.8721 15.0736 9.66609 15.4101 9.52535C15.7466 9.38462 16.1077 9.31193 16.4724 9.31147C17.1808 9.31147 17.8897 9.58518 18.4354 10.1314C18.4357 10.1315 18.4361 10.1315 18.4365 10.1314C18.4369 10.1315 18.4373 10.1315 18.4376 10.1314C19.5256 11.224 19.5608 13.0072 18.4433 14.0539L17.7537 14.6993C15.9925 14.9555 13.7683 15.0535 11.632 14.926C11.5943 14.9229 11.5565 14.9274 11.5206 14.9392C11.4847 14.9509 11.4516 14.9697 11.4231 14.9944C11.3946 15.0192 11.3713 15.0494 11.3546 15.0832C11.338 15.1171 11.3282 15.154 11.326 15.1916C11.3238 15.2293 11.3291 15.2671 11.3417 15.3027C11.3542 15.3383 11.3738 15.371 11.3992 15.399C11.4245 15.4269 11.4553 15.4495 11.4895 15.4654C11.5237 15.4813 11.5608 15.4901 11.5985 15.4915C13.4674 15.6031 15.3839 15.5528 17.0385 15.3686L13.5909 18.5963L8.74593 14.0607H8.74423C8.48525 13.8031 8.27976 13.4968 8.13957 13.1595C7.99938 12.8222 7.92726 12.4605 7.92737 12.0952C7.92747 11.73 7.9998 11.3683 8.14018 11.0311C8.28056 10.6939 8.48624 10.3878 8.74537 10.1303C9.00214 9.87086 9.30774 9.66481 9.64455 9.52407C9.98136 9.38334 10.3427 9.31069 10.7077 9.31033V9.31147ZM7.4562 12.8554C7.5922 13.4447 7.8863 14.0051 8.34473 14.4647C8.34696 14.467 8.34923 14.4693 8.35153 14.4715L8.40027 14.5169C7.9288 14.4166 7.5004 14.3089 7.17287 14.1899C6.6538 14.0017 6.33987 13.7762 6.26167 13.6521C6.22313 13.5898 6.2254 13.5745 6.2373 13.5348C6.24977 13.4951 6.2968 13.4203 6.409 13.3308C6.5977 13.1818 6.96093 13.0124 7.4562 12.8554ZM19.7478 12.8611C20.1331 12.9829 20.4482 13.1104 20.6465 13.2328C20.88 13.3767 20.9559 13.5025 20.9638 13.5518C20.9723 13.6011 20.9627 13.6663 20.795 13.8006C20.6272 13.9354 20.3195 14.093 19.8838 14.2386C19.5687 14.3446 19.1862 14.4359 18.7759 14.5209L18.8303 14.471C19.2914 14.039 19.6108 13.4779 19.7478 12.8611Z" fill="white"/>
</g>
<defs>
<clipPath id="clip0_3_50">
<rect width="27.2" height="27.2" fill="white"/>
</clipPath>
</defs>
</svg>
